<svg width="20" height="20" viewBox="0 0 20 20" fill="none" xmlns="http://www.w3.org/2000/svg">
  <path d="M7.62038 2.08337C5.40619 2.134 4.11291 2.34551 3.22927 3.22915C2.34563 4.11278 2.13412 5.40607 2.0835 7.62026M12.3799 2.08337C14.5941 2.134 15.8874 2.34551 16.7711 3.22915C17.6547 4.11278 17.8662 5.40607 17.9168 7.62026M12.3799 17.9167C14.5941 17.8661 15.8874 17.6546 16.7711 16.7709C17.6547 15.8873 17.8662 14.594 17.9168 12.3798M7.62038 17.9167C5.40619 17.8661 4.11291 17.6546 3.22927 16.7709C2.34563 15.8873 2.13412 14.594 2.0835 12.3798" stroke="currentColor" stroke-width="1.5" stroke-linecap="round" stroke-linejoin="round"/>
  <path d="M6.66683 6.66675H6.67432" stroke="currentColor" stroke-width="2" stroke-linecap="round" stroke-linejoin="round"/>
  <path d="M13.3333 13.3334H13.3408" stroke="currentColor" stroke-width="2" stroke-linecap="round" stroke-linejoin="round"/>
  <path d="M6.66699 13.3334L13.3337 6.66675" stroke="currentColor" stroke-width="1.5" stroke-linecap="round"/>
</svg>
