<svg width="20" height="20" viewBox="0 0 20 20" fill="none" xmlns="http://www.w3.org/2000/svg">
  <path d="M2.5 2.5H15.8333" stroke="currentColor" stroke-width="1.5" stroke-linecap="round" stroke-linejoin="round"/>
  <path d="M2.5 5.83331H10" stroke="currentColor" stroke-width="1.5" stroke-linecap="round" stroke-linejoin="round"/>
  <path d="M2.5 13.3334C2.5 11.3692 2.5 10.3871 3.11019 9.77688C3.72039 9.16669 4.70248 9.16669 6.66667 9.16669H13.3333C15.2975 9.16669 16.2796 9.16669 16.8898 9.77688C17.5 10.3871 17.5 11.3692 17.5 13.3334C17.5 15.2975 17.5 16.2796 16.8898 16.8898C16.2796 17.5 15.2975 17.5 13.3333 17.5H6.66667C4.70248 17.5 3.72039 17.5 3.11019 16.8898C2.5 16.2796 2.5 15.2975 2.5 13.3334Z" stroke="currentColor" stroke-width="1.5" stroke-linecap="round" stroke-linejoin="round"/>
</svg>
