<svg width="16" height="19" viewBox="0 0 16 19" fill="none" xmlns="http://www.w3.org/2000/svg">
  <path d="M4.9165 14.0834C6.42779 12.4553 9.2223 12.3786 10.7498 14.0834M9.45036 9.08341C9.45036 10.0039 8.72386 10.7501 7.82768 10.7501C6.9315 10.7501 6.205 10.0039 6.205 9.08341C6.205 8.16294 6.9315 7.41675 7.82768 7.41675C8.72386 7.41675 9.45036 8.16294 9.45036 9.08341Z" stroke="currentColor" stroke-width="1.5" stroke-linecap="round"/>
  <path d="M5.75 2.41772C3.54634 2.42594 2.36751 2.50299 1.60427 3.22606C0.75 4.03537 0.75 5.33793 0.75 7.94306V11.8904C0.75 14.4956 0.75 15.7981 1.60427 16.6074C2.45854 17.4167 3.83347 17.4167 6.58333 17.4167H9.08333C11.8332 17.4167 13.2081 17.4167 14.0624 16.6074C14.9167 15.7981 14.9167 14.4956 14.9167 11.8904V7.94306C14.9167 5.33793 14.9167 4.03537 14.0624 3.22606C13.2992 2.50299 12.1203 2.42594 9.91667 2.41772" stroke="currentColor" stroke-width="1.5" stroke-linecap="round" stroke-linejoin="round"/>
  <path d="M5.9768 2.1097C6.05675 1.76402 6.09673 1.59118 6.17351 1.45003C6.35238 1.12121 6.68232 0.879566 7.07621 0.788914C7.24529 0.75 7.4413 0.75 7.83333 0.75C8.22537 0.75 8.42138 0.75 8.59046 0.788914C8.98434 0.879566 9.31429 1.12121 9.49315 1.45003C9.56993 1.59118 9.60991 1.76402 9.68987 2.1097L9.75928 2.4098C9.90109 3.02287 9.97199 3.3294 9.86503 3.5652C9.79575 3.71792 9.67769 3.84869 9.52582 3.94092C9.29135 4.08333 8.9437 4.08333 8.24842 4.08333H7.41825C6.72296 4.08333 6.37532 4.08333 6.14084 3.94092C5.98898 3.84869 5.87092 3.71792 5.80164 3.5652C5.69467 3.3294 5.76558 3.02287 5.90738 2.4098L5.9768 2.1097Z" stroke="currentColor" stroke-width="1.5"/>
</svg>
