<svg width="20" height="20" viewBox="0 0 20 20" fill="none" xmlns="http://www.w3.org/2000/svg">
  <path d="M12.9163 10C12.9163 11.6109 11.6105 12.9167 9.99967 12.9167C8.38884 12.9167 7.08301 11.6109 7.08301 10C7.08301 8.38921 8.38884 7.08337 9.99967 7.08337C11.6105 7.08337 12.9163 8.38921 12.9163 10Z" stroke="currentColor" stroke-width="1.5"/>
  <path d="M17.3492 11.7949C17.8785 11.6209 18.1432 11.5339 18.2382 11.4027C18.3332 11.2715 18.3332 11.0607 18.3332 10.6391V9.36107C18.3332 8.93943 18.3332 8.72861 18.2382 8.59739C18.1432 8.46617 17.8785 8.3792 17.3492 8.20526C15.8716 7.71969 14.947 6.17585 15.2481 4.66574C15.3592 4.10822 15.4148 3.82946 15.3475 3.6824C15.2803 3.53533 15.0961 3.43073 14.7276 3.22152L13.5802 2.57009C13.2175 2.36417 13.0362 2.26121 12.8759 2.27849C12.7156 2.29578 12.5115 2.47894 12.1032 2.84527C10.9189 3.90779 9.08212 3.90775 7.89782 2.84519C7.48952 2.47886 7.28538 2.2957 7.12509 2.27841C6.9648 2.26112 6.78345 2.36409 6.42077 2.57001L5.27342 3.22144C4.90497 3.43063 4.72075 3.53523 4.65351 3.68227C4.58627 3.82931 4.6418 4.1081 4.75286 4.66569C5.05367 6.17585 4.12838 7.71974 2.65049 8.20528C2.12118 8.37918 1.85653 8.46613 1.76152 8.59735C1.6665 8.72858 1.6665 8.93941 1.6665 9.36107V10.6391C1.6665 11.0607 1.6665 11.2716 1.7615 11.4028C1.85651 11.534 2.12116 11.621 2.65048 11.7949C4.12807 12.2805 5.05264 13.8243 4.75161 15.3344C4.64048 15.8919 4.58491 16.1707 4.65215 16.3178C4.71938 16.4648 4.90362 16.5694 5.2721 16.7786L6.41945 17.4301C6.78216 17.636 6.96352 17.739 7.12383 17.7217C7.28414 17.7044 7.48824 17.5212 7.89645 17.1548C9.08142 16.0913 10.9196 16.0913 12.1045 17.1548C12.5128 17.5211 12.7169 17.7043 12.8772 17.7216C13.0375 17.7389 13.2188 17.6359 13.5815 17.43L14.7289 16.7786C15.0974 16.5693 15.2817 16.4647 15.3489 16.3176C15.4161 16.1705 15.3605 15.8918 15.2493 15.3344C14.9481 13.8243 15.8719 12.2805 17.3492 11.7949Z" stroke="currentColor" stroke-width="1.5" stroke-linecap="round"/>
</svg>
