<svg width="20" height="20" viewBox="0 0 20 20" fill="none" xmlns="http://www.w3.org/2000/svg">
  <rect x="3.3335" y="1.66669" width="14.5833" height="16.6667" rx="4" stroke="currentColor" stroke-width="1.5"/>
  <path d="M8.82503 11.4507C8.30104 11.8017 6.92717 12.5184 7.76395 13.4153C8.17271 13.8534 8.62796 14.1667 9.20032 14.1667H12.4663C13.0387 14.1667 13.494 13.8534 13.9027 13.4153C14.7395 12.5184 13.3656 11.8017 12.8416 11.4507C11.6129 10.6276 10.0538 10.6276 8.82503 11.4507Z" stroke="currentColor" stroke-width="1.5"/>
  <path d="M12.5 7.50004C12.5 8.42052 11.7538 9.16671 10.8333 9.16671C9.91286 9.16671 9.16667 8.42052 9.16667 7.50004C9.16667 6.57957 9.91286 5.83337 10.8333 5.83337C11.7538 5.83337 12.5 6.57957 12.5 7.50004Z" stroke="currentColor" stroke-width="1.5"/>
  <path d="M4.16683 5L2.0835 5M4.16683 10L2.0835 10M4.16683 15H2.0835" stroke="currentColor" stroke-width="1.5" stroke-linecap="round" stroke-linejoin="round"/>
</svg>
