<svg width="20" height="20" viewBox="0 0 20 20" fill="none" xmlns="http://www.w3.org/2000/svg">
  <path d="M1.6665 5.00002C1.6665 3.42867 1.6665 2.643 2.15466 2.15484C2.64281 1.66669 3.42849 1.66669 4.99984 1.66669C6.57119 1.66669 7.35686 1.66669 7.84502 2.15484C8.33317 2.643 8.33317 3.42867 8.33317 5.00002V6.66669C8.33317 8.23804 8.33317 9.02371 7.84502 9.51186C7.35686 10 6.57119 10 4.99984 10C3.42849 10 2.64281 10 2.15466 9.51186C1.6665 9.02371 1.6665 8.23804 1.6665 6.66669V5.00002Z" stroke="currentColor" stroke-width="1.5"/>
  <path d="M1.6665 15.8334C1.6665 15.0568 1.6665 14.6685 1.79337 14.3622C1.96253 13.9539 2.28698 13.6294 2.69536 13.4602C3.00165 13.3334 3.38993 13.3334 4.1665 13.3334H5.83317C6.60974 13.3334 6.99802 13.3334 7.30431 13.4602C7.71269 13.6294 8.03715 13.9539 8.2063 14.3622C8.33317 14.6685 8.33317 15.0568 8.33317 15.8334C8.33317 16.6099 8.33317 16.9982 8.2063 17.3045C8.03715 17.7129 7.71269 18.0374 7.30431 18.2065C6.99802 18.3334 6.60974 18.3334 5.83317 18.3334H4.1665C3.38993 18.3334 3.00165 18.3334 2.69536 18.2065C2.28698 18.0374 1.96253 17.7129 1.79337 17.3045C1.6665 16.9982 1.6665 16.6099 1.6665 15.8334Z" stroke="currentColor" stroke-width="1.5"/>
  <path d="M11.6665 13.3333C11.6665 11.762 11.6665 10.9763 12.1547 10.4882C12.6428 10 13.4285 10 14.9998 10C16.5712 10 17.3569 10 17.845 10.4882C18.3332 10.9763 18.3332 11.762 18.3332 13.3333V15C18.3332 16.5713 18.3332 17.357 17.845 17.8452C17.3569 18.3333 16.5712 18.3333 14.9998 18.3333C13.4285 18.3333 12.6428 18.3333 12.1547 17.8452C11.6665 17.357 11.6665 16.5713 11.6665 15V13.3333Z" stroke="currentColor" stroke-width="1.5"/>
  <path d="M11.6665 4.16669C11.6665 3.39012 11.6665 3.00183 11.7934 2.69555C11.9625 2.28717 12.287 1.96271 12.6954 1.79355C13.0016 1.66669 13.3899 1.66669 14.1665 1.66669H15.8332C16.6097 1.66669 16.998 1.66669 17.3043 1.79355C17.7127 1.96271 18.0371 2.28717 18.2063 2.69555C18.3332 3.00183 18.3332 3.39012 18.3332 4.16669C18.3332 4.94326 18.3332 5.33154 18.2063 5.63783C18.0371 6.04621 17.7127 6.37066 17.3043 6.53982C16.998 6.66669 16.6097 6.66669 15.8332 6.66669H14.1665C13.3899 6.66669 13.0016 6.66669 12.6954 6.53982C12.287 6.37066 11.9625 6.04621 11.7934 5.63783C11.6665 5.33154 11.6665 4.94326 11.6665 4.16669Z" stroke="currentColor" stroke-width="1.5"/>
</svg>
