<svg width="17" height="19" viewBox="0 0 17 19" fill="none" xmlns="http://www.w3.org/2000/svg">
  <path d="M15.75 14.5002C15.75 15.6705 15.75 16.2557 15.434 16.6761C15.2972 16.8581 15.1214 17.0143 14.9167 17.1359C14.4438 17.4168 13.7854 17.4168 12.4687 17.4168L4.03125 17.4168C2.71457 17.4168 2.05622 17.4168 1.58331 17.1359C1.37857 17.0143 1.20279 16.8581 1.06599 16.6761C0.75 16.2557 0.75 15.6705 0.75 14.5002C0.75 13.3298 0.75 12.7446 1.06599 12.3242C1.20279 12.1422 1.37857 11.986 1.58331 11.8644C2.05623 11.5835 2.71457 11.5835 4.03125 11.5835L12.4688 11.5835C13.7854 11.5835 14.4438 11.5835 14.9167 11.8644C15.1214 11.986 15.2972 12.1422 15.434 12.3242C15.75 12.7446 15.75 13.3298 15.75 14.5002Z" stroke="currentColor" stroke-width="1.5"/>
  <path d="M8.30209 2.4165L4.03125 2.4165C2.71457 2.4165 2.05623 2.4165 1.58331 2.69739C1.37857 2.81899 1.20279 2.97524 1.06599 3.15722C0.75 3.57759 0.75 4.16279 0.75 5.33317C0.75 6.50356 0.75 7.08875 1.06599 7.50912C1.20279 7.6911 1.37857 7.84736 1.58331 7.96895C2.05622 8.24984 2.71457 8.24984 4.03125 8.24984L12.4688 8.24984C13.7854 8.24984 14.4438 8.24984 14.9167 7.96895" stroke="currentColor" stroke-width="1.5" stroke-linecap="round"/>
  <path d="M15.75 5.74947L10.75 0.75M15.75 0.750534L10.75 5.75" stroke="currentColor" stroke-width="1.5" stroke-linecap="round" stroke-linejoin="round"/>
</svg>
