<svg width="20" height="20" viewBox="0 0 20 20" fill="none" xmlns="http://www.w3.org/2000/svg">
  <g clip-path="url(#clip0_472_8059)">
    <path d="M9.58317 11.6763C7.87765 11.5969 6.15262 12.0053 4.64782 12.9013C3.46884 13.6033 0.377641 15.0367 2.26039 16.8304C3.1801 17.7066 4.20441 18.3333 5.49223 18.3333H9.99984" stroke="currentColor" stroke-width="1.5" stroke-linecap="round" stroke-linejoin="round"/>
    <path d="M12.9165 5.41663C12.9165 7.48769 11.2376 9.16663 9.1665 9.16663C7.09544 9.16663 5.4165 7.48769 5.4165 5.41663C5.4165 3.34556 7.09544 1.66663 9.1665 1.66663C11.2376 1.66663 12.9165 3.34556 12.9165 5.41663Z" stroke="currentColor" stroke-width="1.5"/>
    <path d="M14.9998 17.2618V18.3333M14.9998 17.2618C14.0359 17.2618 13.1866 16.7883 12.6884 16.0693M14.9998 17.2618C15.9638 17.2618 16.8131 16.7883 17.3112 16.0693M14.9998 11.9047C15.9639 11.9047 16.8132 12.3783 17.3113 13.0973M14.9998 11.9047C14.0358 11.9047 13.1864 12.3783 12.6883 13.0973M14.9998 11.9047V10.8333M18.3332 12.4404L17.3113 13.0973M11.6669 16.7261L12.6884 16.0693M11.6665 12.4404L12.6883 13.0973M18.3328 16.7261L17.3112 16.0693M17.3113 13.0973C17.6059 13.5225 17.7776 14.0335 17.7776 14.5833C17.7776 15.133 17.6058 15.6441 17.3112 16.0693M12.6883 13.0973C12.3938 13.5225 12.2221 14.0335 12.2221 14.5833C12.2221 15.133 12.3938 15.6441 12.6884 16.0693" stroke="currentColor" stroke-width="1.5" stroke-linecap="round"/>
  </g>
  <defs>
    <clipPath id="clip0_472_8059">
      <rect width="20" height="20" fill="white"/>
    </clipPath>
  </defs>
</svg>
