<svg width="81" height="25" viewBox="0 0 81 25" fill="none" xmlns="http://www.w3.org/2000/svg">
  <circle cx="2.5" cy="2.5" r="2.5" fill="#84D94D"/>
  <path d="M1.17969 9.44141C1.17969 8.64534 1.82503 8 2.62109 8C3.41716 8 4.0625 8.64534 4.0625 9.44141V18.5586C4.0625 19.3547 3.41716 20 2.62109 20C1.82503 20 1.17969 19.3547 1.17969 18.5586V9.44141Z" fill="currentColor"/>
  <path d="M14.5977 13.0391C14.5977 11.2031 13.7227 10.2852 11.9727 10.2852C11.207 10.2852 10.5703 10.5312 10.0625 11.0234C9.5625 11.5078 9.3125 12.1328 9.3125 12.8984V18.5586C9.3125 19.3547 8.66716 20 7.87109 20C7.07503 20 6.42969 19.3547 6.42969 18.5586V9.44141C6.42969 8.64534 7.07503 8 7.87109 8C8.66716 8 9.3125 8.64534 9.3125 9.44141V9.82812C9.75 9.14062 10.3086 8.60547 10.9883 8.22266C11.668 7.83203 12.3672 7.63672 13.0859 7.63672C14.3906 7.63672 15.4453 8.0625 16.25 8.91406C17.0625 9.75781 17.4688 10.9336 17.4688 12.4414V18.5645C17.4688 19.3573 16.826 20 16.0332 20C15.2404 20 14.5977 19.3573 14.5977 18.5645V13.0391Z" fill="currentColor"/>
  <path d="M25.7891 15.3008L23.6328 15.0547C22.2891 14.8594 21.293 14.4727 20.6445 13.8945C19.9961 13.3164 19.6719 12.4961 19.6719 11.4336C19.6719 10.2773 20.125 9.36328 21.0312 8.69141C21.9453 8.01953 23.1875 7.68359 24.7578 7.68359C26.2812 7.68359 27.5117 8.02734 28.4492 8.71484C28.9496 9.07873 29.3361 9.51485 29.6088 10.0232C30.0136 10.7776 29.3181 11.5508 28.4619 11.5508C27.7636 11.5508 27.2283 10.9806 26.7497 10.472C26.3309 10.0271 25.6748 9.80469 24.7812 9.80469C24.1094 9.80469 23.5742 9.9375 23.1758 10.2031C22.7773 10.4688 22.5781 10.8242 22.5781 11.2695C22.5781 11.6758 22.7109 11.9844 22.9766 12.1953C23.2422 12.3984 23.6523 12.5352 24.207 12.6055L26.4922 12.8516C27.8281 13.0234 28.8047 13.4141 29.4219 14.0234C30.0391 14.625 30.3477 15.5117 30.3477 16.6836C30.3477 17.7617 29.8867 18.6289 28.9648 19.2852C28.0508 19.9414 26.832 20.2695 25.3086 20.2695C23.6523 20.2695 22.3164 19.9258 21.3008 19.2383C20.8048 18.8999 20.4119 18.501 20.1222 18.0416C19.6344 17.268 20.3663 16.4258 21.2808 16.4258C22.0066 16.4258 22.5651 17.0152 23.0759 17.5308C23.1657 17.6214 23.2654 17.7023 23.375 17.7734C23.8203 18.0547 24.457 18.1953 25.2852 18.1953C25.9805 18.1953 26.5352 18.0664 26.9492 17.8086C27.3633 17.5508 27.5703 17.2031 27.5703 16.7656C27.5703 15.9297 26.9766 15.4414 25.7891 15.3008Z" fill="currentColor"/>
  <path d="M32.4688 9.44141C32.4688 8.64534 33.1141 8 33.9102 8C34.7062 8 35.3516 8.64534 35.3516 9.44141V18.5586C35.3516 19.3547 34.7062 20 33.9102 20C33.1141 20 32.4688 19.3547 32.4688 18.5586V9.44141Z" fill="#292D32"/>
  <path d="M47.8262 8C48.619 8 49.2617 8.64272 49.2617 9.43555V20.2695C49.2617 21.6133 48.7461 22.6953 47.7148 23.5156C46.6914 24.3438 45.3359 24.7578 43.6484 24.7578C41.9766 24.7578 40.5977 24.3828 39.5117 23.6328C38.9263 23.2285 38.4692 22.7504 38.1403 22.1985C37.6881 21.4396 38.3793 20.6211 39.2628 20.6211C39.9871 20.6211 40.5651 21.2363 41.1024 21.7221C41.2005 21.8108 41.3109 21.893 41.4336 21.9688C41.9648 22.3047 42.6641 22.4727 43.5312 22.4727C44.4453 22.4727 45.1484 22.2656 45.6406 21.8516C46.1406 21.4453 46.3906 20.875 46.3906 20.1406V17.457C45.9609 18.1758 45.4102 18.7305 44.7383 19.1211C44.0742 19.5117 43.3203 19.707 42.4766 19.707C40.9766 19.707 39.7656 19.1523 38.8438 18.043C37.9219 16.9336 37.4609 15.4727 37.4609 13.6602C37.4609 11.8633 37.9219 10.4141 38.8438 9.3125C39.7656 8.21094 40.9766 7.66016 42.4766 7.66016C43.3125 7.66016 44.0664 7.85938 44.7383 8.25781C45.4102 8.64844 45.9609 9.20312 46.3906 9.92188V9.43555C46.3906 8.64272 47.0333 8 47.8262 8ZM40.4141 13.6602C40.4141 14.7773 40.6758 15.6445 41.1992 16.2617C41.7305 16.8789 42.4688 17.1875 43.4141 17.1875C44.3594 17.1875 45.0898 16.8789 45.6055 16.2617C46.1289 15.6445 46.3906 14.7773 46.3906 13.6602C46.3906 12.543 46.1289 11.6797 45.6055 11.0703C45.0898 10.4609 44.3594 10.1562 43.4141 10.1562C42.4609 10.1562 41.7227 10.4648 41.1992 11.082C40.6758 11.6914 40.4141 12.5508 40.4141 13.6602Z" fill="#292D32"/>
  <path d="M59.8086 13.0391C59.8086 11.2031 58.9336 10.2852 57.1836 10.2852C56.418 10.2852 55.7812 10.5312 55.2734 11.0234C54.7734 11.5078 54.5234 12.1328 54.5234 12.8984V20H51.6406V9.44141C51.6406 8.64534 52.286 8 53.082 8C53.8781 8 54.5234 8.64534 54.5234 9.44141V9.82812C54.9609 9.14062 55.5195 8.60547 56.1992 8.22266C56.8789 7.83203 57.5781 7.63672 58.2969 7.63672C59.6016 7.63672 60.6562 8.0625 61.4609 8.91406C62.2734 9.75781 62.6797 10.9336 62.6797 12.4414V18.5645C62.6797 19.3573 62.037 20 61.2441 20C60.4513 20 59.8086 19.3573 59.8086 18.5645V13.0391Z" fill="#292D32"/>
  <path d="M65 9.44141C65 8.64534 65.6453 8 66.4414 8C67.2375 8 67.8828 8.64534 67.8828 9.44141V18.5586C67.8828 19.3547 67.2375 20 66.4414 20C65.6453 20 65 19.3547 65 18.5586V9.44141Z" fill="#292D32"/>
  <path d="M80.7852 16.332C80.7852 16.9854 80.81 17.5743 80.8597 18.0988C80.9488 19.0381 80.2413 20 79.2977 20C78.7159 20 78.1887 19.6297 78.0859 19.057C78.0259 18.7227 77.9842 18.3651 77.9609 17.9844C77.5625 18.7109 77.0156 19.2773 76.3203 19.6836C75.625 20.0898 74.8438 20.293 73.9766 20.293C72.8203 20.293 71.8672 19.9414 71.1172 19.2383C70.3672 18.5352 69.9922 17.6445 69.9922 16.5664C69.9922 15.5117 70.3047 14.6836 70.9297 14.082C71.5547 13.4727 72.4492 13.1406 73.6133 13.0859L76.7305 12.8984C77.1602 12.8672 77.4648 12.7734 77.6445 12.6172C77.8242 12.4609 77.9141 12.2188 77.9141 11.8906V11.8438C77.9141 11.2969 77.6836 10.832 77.2227 10.4492C76.7695 10.0664 76.2148 9.875 75.5586 9.875C74.6443 9.875 73.9782 10.1159 73.5602 10.5977C73.0586 11.1759 72.4885 11.8203 71.723 11.8203C70.8393 11.8203 70.1086 11.0395 70.4988 10.2465C70.7727 9.69012 71.178 9.2069 71.7148 8.79688C72.707 8.03906 73.9883 7.66016 75.5586 7.66016C77.1055 7.66016 78.3633 8.08203 79.332 8.92578C80.3008 9.76953 80.7852 10.8594 80.7852 12.1953V16.332ZM72.9219 16.3086C72.9219 16.8008 73.1133 17.1953 73.4961 17.4922C73.8789 17.7891 74.3906 17.9375 75.0312 17.9375C75.8438 17.9375 76.5273 17.6641 77.082 17.1172C77.6367 16.5703 77.9141 15.8906 77.9141 15.0781V14.668L74.668 14.8438C73.5039 14.9141 72.9219 15.4023 72.9219 16.3086Z" fill="#292D32"/>
  <ellipse cx="28.0298" cy="10" rx="0.982913" ry="0.951567" transform="rotate(2.89527 28.0298 10)" fill="#84D94D"/>
</svg>
