<svg width="24" height="24" viewBox="0 0 24 24" fill="none" xmlns="http://www.w3.org/2000/svg">
  <path fill-rule="evenodd" clip-rule="evenodd" d="M14.8687 2.77055C14.2817 2.82547 13.7102 2.99575 13.353 3.35298C12.9957 3.71022 12.8255 4.28173 12.7705 4.86871C12.7579 5.00345 12.7521 5.13201 12.7505 5.24953C12.868 5.24792 12.9966 5.24206 13.1313 5.22945C13.7183 5.17454 14.2898 5.00425 14.647 4.64702C15.0043 4.28978 15.1745 3.71827 15.2295 3.13129C15.2421 2.99655 15.2479 2.86799 15.2495 2.75047C15.132 2.75208 15.0034 2.75794 14.8687 2.77055ZM15.9622 2.03775C16.7044 1.92988 16.7045 1.9301 16.7045 1.93033L16.7047 1.93198L16.7052 1.93484L16.7063 1.94284L16.7095 1.96766C16.7121 1.98804 16.7154 2.016 16.719 2.05078C16.7262 2.12027 16.7347 2.2175 16.741 2.33634C16.7535 2.5727 16.7575 2.90132 16.7229 3.27102C16.6563 3.98291 16.4342 4.98119 15.7077 5.70768C14.9812 6.43416 13.9829 6.65633 13.271 6.72293C12.9013 6.75752 12.5727 6.75345 12.3363 6.74096C12.2175 6.73468 12.1203 6.72617 12.0508 6.71896C12.016 6.71535 11.988 6.71205 11.9677 6.70949L11.9428 6.70626L11.9348 6.70516L11.932 6.70475L11.9308 6.70459C11.9306 6.70455 11.9299 6.70445 12.0378 5.96225C11.2956 6.07012 11.2955 6.0699 11.2955 6.06967L11.2953 6.06802L11.2948 6.06516L11.2937 6.05716L11.2905 6.03234C11.2879 6.01196 11.2846 5.984 11.281 5.94922C11.2738 5.87973 11.2653 5.7825 11.259 5.66367C11.2466 5.4273 11.2425 5.09868 11.2771 4.72898C11.3437 4.01709 11.5658 3.01881 12.2923 2.29232C13.0188 1.56584 14.0171 1.34367 14.729 1.27707C15.0987 1.24248 15.4273 1.24655 15.6637 1.25904C15.7825 1.26532 15.8797 1.27383 15.9492 1.28104C15.984 1.28465 16.012 1.28795 16.0323 1.29051L16.0572 1.29374L16.0652 1.29485L16.068 1.29525L16.0692 1.29542C16.0694 1.29545 16.0701 1.29555 15.9622 2.03775ZM12.0378 5.96225L11.2955 6.06967C11.3432 6.3982 11.6023 6.65683 11.9308 6.70459L12.0378 5.96225ZM15.9622 2.03775L16.0692 1.29542C16.3977 1.34317 16.6568 1.6018 16.7045 1.93033L15.9622 2.03775Z" fill="currentColor"/>
  <path fill-rule="evenodd" clip-rule="evenodd" d="M5.93972 10.0404C5.23476 10.9024 4.75 12.2358 4.75 14.0593C4.75 15.5461 5.25228 17.1821 6.02777 18.5439C6.81601 19.9281 7.80479 20.8901 8.67194 21.2009C9.06095 21.3403 9.57026 21.177 10.211 20.7178C10.4833 20.5226 10.8009 20.3196 11.1317 20.1628C11.4522 20.0108 11.8442 19.8736 12.2497 19.8736C12.6551 19.8736 13.0471 20.0108 13.3676 20.1628C13.6984 20.3196 14.016 20.5226 14.2883 20.7178C14.9291 21.177 15.4384 21.3403 15.8274 21.2009C16.4335 20.9836 17.1128 20.4432 17.7509 19.6258C18.2504 18.9859 18.6972 18.211 19.0411 17.3753C17.6312 16.67 16.6557 15.2299 16.6557 13.5544C16.6557 12.0834 17.4083 10.7931 18.5457 10.0232C17.8442 9.17497 16.8982 8.75 15.8589 8.75C15.2537 8.75 14.6576 8.99639 14.1274 9.34144C12.9257 10.1236 11.5737 10.1236 10.3719 9.34144C9.84174 8.99639 9.2456 8.75 8.64044 8.75C7.58384 8.75 6.63691 9.1879 5.93972 10.0404ZM4.77858 9.09078C5.7609 7.88966 7.13419 7.25 8.64044 7.25C9.64385 7.25 10.5261 7.65205 11.1901 8.08427C11.8945 8.54267 12.6049 8.54267 13.3092 8.08427C13.9733 7.65205 14.8555 7.25 15.8589 7.25C17.6963 7.25 19.3163 8.19962 20.2853 9.92065C20.391 10.1084 20.4109 10.3324 20.3399 10.5358C20.2689 10.7392 20.1139 10.9022 19.9143 10.9834C18.8732 11.4067 18.1557 12.4049 18.1557 13.5544C18.1557 14.8087 19.0114 15.884 20.2065 16.2263C20.403 16.2826 20.5681 16.4167 20.6634 16.5975C20.7588 16.7783 20.7762 16.9902 20.7116 17.1842C20.2992 18.4234 19.6749 19.5988 18.9333 20.5488C18.2 21.4881 17.3066 22.2641 16.3335 22.6129C15.1815 23.0258 14.098 22.4268 13.4145 21.937C13.1845 21.7721 12.9469 21.6233 12.7252 21.5182C12.4932 21.4083 12.3354 21.3736 12.2497 21.3736C12.1639 21.3736 12.0061 21.4083 11.7742 21.5182C11.5525 21.6233 11.3148 21.7721 11.0848 21.937C10.4013 22.4268 9.31784 23.0258 8.16585 22.6129C6.81055 22.1272 5.58989 20.8062 4.7243 19.2862C3.84595 17.7438 3.25 15.8542 3.25 14.0593C3.25 11.9787 3.80404 10.2824 4.77858 9.09078Z" fill="currentColor"/>
</svg>
