<svg width="24" height="24" viewBox="0 0 24 24" fill="none" xmlns="http://www.w3.org/2000/svg">
  <path fill-rule="evenodd" clip-rule="evenodd" d="M12 2.75C6.89137 2.75 2.75 6.89137 2.75 12C2.75 17.1086 6.89137 21.25 12 21.25C17.1086 21.25 21.25 17.1086 21.25 12C21.25 6.89137 17.1086 2.75 12 2.75ZM1.25 12C1.25 6.06294 6.06294 1.25 12 1.25C17.9371 1.25 22.75 6.06294 22.75 12C22.75 17.9371 17.9371 22.75 12 22.75C6.06294 22.75 1.25 17.9371 1.25 12Z" fill="#292D32"/>
  <path fill-rule="evenodd" clip-rule="evenodd" d="M19.1471 13.75C14.062 13.75 9.51926 16.3543 6.61067 20.4353L5.38916 19.5647C8.54926 15.1308 13.5276 12.25 19.1471 12.25C20.1666 12.25 21.166 12.3449 22.1381 12.5272L21.8617 14.0015C20.9801 13.8362 20.0732 13.75 19.1471 13.75Z" fill="#292D32"/>
  <path fill-rule="evenodd" clip-rule="evenodd" d="M5.90969 10.25C10.9421 10.25 15.4384 8.01849 18.4296 4.51318L19.5706 5.48685C16.3028 9.31639 11.3938 11.75 5.90969 11.75C4.50754 11.75 3.14229 11.5909 1.83203 11.2896L2.16811 9.82778C3.36882 10.1038 4.62134 10.25 5.90969 10.25Z" fill="#292D32"/>
  <path fill-rule="evenodd" clip-rule="evenodd" d="M14.2501 18.2407C14.2501 12.1815 11.2142 6.82924 6.57324 3.61664L7.42699 2.3833C12.4547 5.86359 15.7501 11.6677 15.7501 18.2407C15.7501 19.5799 15.6132 20.888 15.3524 22.1516L13.8834 21.8483C14.1237 20.684 14.2501 19.4775 14.2501 18.2407Z" fill="#292D32"/>
</svg>
