<svg width="24" height="24" viewBox="0 0 24 24" fill="none" xmlns="http://www.w3.org/2000/svg">
  <path fill-rule="evenodd" clip-rule="evenodd" d="M11.6409 5.23025C11.8647 5.10815 12.1353 5.10815 12.3592 5.23025L18.4703 8.56358C18.7112 8.69501 18.8611 8.94755 18.8611 9.222C18.8611 9.49646 18.7112 9.749 18.4703 9.88043L12.3592 13.2138C12.1353 13.3359 11.8647 13.3359 11.6409 13.2138L5.52978 9.88043C5.28883 9.749 5.13892 9.49646 5.13892 9.222C5.13892 8.94755 5.28883 8.69501 5.52978 8.56358L11.6409 5.23025ZM7.45516 9.222L12 11.701L16.5449 9.222L12 6.74299L7.45516 9.222Z" fill="#292D32"/>
  <path fill-rule="evenodd" clip-rule="evenodd" d="M5.33325 14.5835C5.74747 14.5835 6.08325 14.9193 6.08325 15.3335V17.3328C6.08325 17.8913 6.14076 18.0855 6.20644 18.1948C6.27002 18.3006 6.41028 18.4411 6.90243 18.6921L11.3469 20.959C11.5993 21.0877 11.7516 21.1635 11.8689 21.2103C11.923 21.2318 11.9563 21.2417 11.9761 21.2463C11.9856 21.2485 11.9916 21.2494 11.9947 21.2498C11.9978 21.2501 11.9993 21.2502 11.9999 21.2502C12.0003 21.2502 12.0008 21.2502 12.0018 21.2501C12.0026 21.25 12.0037 21.2499 12.0051 21.2498C12.0083 21.2494 12.0142 21.2485 12.0237 21.2463C12.0436 21.2417 12.0769 21.2318 12.1309 21.2103C12.2483 21.1635 12.4005 21.0877 12.653 20.959L17.0974 18.6921C17.5896 18.4411 17.7298 18.3006 17.7934 18.1948C17.8591 18.0855 17.9166 17.8913 17.9166 17.3328V15.3335C17.9166 14.9193 18.2524 14.5835 18.6666 14.5835C19.0808 14.5835 19.4166 14.9193 19.4166 15.3335V17.3328C19.4166 17.9218 19.3718 18.4803 19.0792 18.9673C18.7845 19.4578 18.3105 19.7572 17.7789 20.0284L13.3345 22.2952C13.0992 22.4152 12.8812 22.5259 12.6868 22.6035C12.4824 22.685 12.2568 22.7502 11.9999 22.7502C11.743 22.7502 11.5174 22.685 11.3131 22.6035C11.1187 22.5259 10.9006 22.4152 10.6653 22.2952L6.2209 20.0284C5.68929 19.7572 5.21534 19.4578 4.92066 18.9673C4.62807 18.4803 4.58325 17.9218 4.58325 17.3328V15.3335C4.58325 14.9193 4.91904 14.5835 5.33325 14.5835Z" fill="#292D32"/>
  <path fill-rule="evenodd" clip-rule="evenodd" d="M6.93158 2.88919C6.6541 3.02785 6.31223 3.25119 5.78401 3.59853L3.92554 4.82062C3.40673 5.16178 3.08985 5.37252 2.88985 5.55126C2.81075 5.62196 2.77333 5.66739 2.75658 5.6922C2.77141 5.71845 2.80557 5.76734 2.88033 5.84528C3.06683 6.03973 3.36753 6.27525 3.85935 6.65641L6.2759 8.52923C6.45919 8.67129 6.56647 8.89014 6.56647 9.12204C6.56647 9.35394 6.45919 9.5728 6.2759 9.71486L3.85935 11.5877C3.36753 11.9688 3.06683 12.2044 2.88033 12.3988C2.80557 12.4768 2.77141 12.5256 2.75658 12.5519C2.77333 12.5767 2.81075 12.6221 2.88985 12.6928C3.08985 12.8716 3.40673 13.0823 3.92555 13.4235L6.77846 15.2995C7.06725 15.4894 7.22955 15.5946 7.35466 15.6572C7.3885 15.6741 7.4119 15.6838 7.42691 15.6892C7.44124 15.6814 7.46358 15.6678 7.49564 15.645C7.61074 15.5632 7.75626 15.4333 8.01369 15.2005L11.497 12.051C11.7826 11.7928 12.2174 11.7928 12.503 12.051L15.0993 14.3984C15.5703 14.8243 15.876 15.0991 16.1305 15.28C16.3694 15.4498 16.4941 15.4852 16.588 15.4926C16.6814 15.4999 16.8087 15.4847 17.0685 15.3549C17.3459 15.2162 17.6878 14.9929 18.216 14.6456L20.0745 13.4235C20.5933 13.0823 20.9102 12.8716 21.1102 12.6928C21.1893 12.6221 21.2267 12.5767 21.2435 12.5519C21.2286 12.5256 21.1945 12.4768 21.1197 12.3988C20.9332 12.2044 20.6325 11.9688 20.1407 11.5877L17.7241 9.71486C17.5408 9.5728 17.4336 9.35394 17.4336 9.12204C17.4336 8.89014 17.5408 8.67129 17.7241 8.52923L20.1407 6.65641C20.6325 6.27525 20.9332 6.03973 21.1197 5.84528C21.1945 5.76734 21.2286 5.71845 21.2435 5.6922C21.2267 5.66739 21.1893 5.62196 21.1102 5.55126C20.9102 5.37252 20.5933 5.16177 20.0745 4.82061L18.216 3.59853C17.6878 3.25119 17.3459 3.02785 17.0685 2.88919C16.8087 2.75935 16.6814 2.74418 16.588 2.75153C16.4941 2.75892 16.3694 2.79425 16.1305 2.96406C15.876 3.145 15.5703 3.41978 15.0993 3.84565L12.503 6.19309C12.2174 6.45133 11.7826 6.45133 11.497 6.19309L8.90077 3.84565C8.42977 3.41978 8.12406 3.145 7.86952 2.96406C7.63064 2.79425 7.50592 2.75892 7.41208 2.75153C7.31869 2.74418 7.19136 2.75935 6.93158 2.88919ZM21.2557 5.71569C21.2551 5.71556 21.2532 5.7121 21.2518 5.70569C21.2555 5.71261 21.2563 5.71582 21.2557 5.71569ZM21.2507 5.67805C21.2516 5.67164 21.2532 5.66809 21.2537 5.66793C21.2543 5.66776 21.2538 5.67096 21.2507 5.67805ZM21.2537 12.5762C21.2532 12.576 21.2516 12.5724 21.2507 12.566C21.2538 12.5731 21.2543 12.5763 21.2537 12.5762ZM21.2518 12.5384C21.2532 12.532 21.2551 12.5285 21.2557 12.5284C21.2563 12.5283 21.2555 12.5315 21.2518 12.5384ZM2.74437 12.5284C2.74494 12.5285 2.74682 12.532 2.74827 12.5384C2.74451 12.5315 2.74379 12.5283 2.74437 12.5284ZM2.74938 12.566C2.74846 12.5724 2.74688 12.576 2.74633 12.5762C2.74577 12.5763 2.74623 12.5731 2.74938 12.566ZM2.74633 5.66793C2.74688 5.66809 2.74846 5.67165 2.74938 5.67809C2.74623 5.67098 2.74577 5.66776 2.74633 5.66793ZM2.74827 5.70569C2.74682 5.7121 2.74494 5.71556 2.74437 5.71569C2.74379 5.71582 2.74451 5.71261 2.74827 5.70569ZM6.26101 1.54742C6.65424 1.3509 7.06336 1.21943 7.52982 1.25616C7.99581 1.29285 8.37985 1.48646 8.73859 1.74147C9.07362 1.97963 9.4446 2.31509 9.87558 2.7048L12 4.62565L14.1245 2.70479C14.5555 2.31508 14.9264 1.97962 15.2614 1.74147C15.6202 1.48646 16.0042 1.29285 16.4702 1.25616C16.9367 1.21943 17.3458 1.3509 17.739 1.54742C18.1057 1.73064 18.522 2.00445 19.0048 2.32198L20.9432 3.59661C21.4031 3.89897 21.8164 4.17066 22.1098 4.43284C22.4271 4.71649 22.729 5.09685 22.749 5.63595C22.769 6.1744 22.4969 6.57643 22.2022 6.88361C21.9295 7.16796 21.5379 7.47138 21.1016 7.80946L19.4079 9.12204L21.1016 10.4346C21.5379 10.7727 21.9295 11.0761 22.2022 11.3605C22.4969 11.6677 22.769 12.0697 22.749 12.6081C22.729 13.1472 22.4271 13.5276 22.1098 13.8112C21.8164 14.0734 21.4032 14.3451 20.9432 14.6475L19.0048 15.9221C18.522 16.2397 18.1057 16.5134 17.739 16.6967C17.3458 16.8932 16.9367 17.0247 16.4702 16.9879C16.0042 16.9512 15.6202 16.7576 15.2614 16.5026C14.9264 16.2645 14.5555 15.929 14.1245 15.5393L12 13.6184L8.99323 16.3371C8.77209 16.5371 8.56056 16.7284 8.36472 16.8676C8.14542 17.0235 7.88009 17.1637 7.54472 17.1901C7.2089 17.2165 6.92495 17.1193 6.68409 16.9989C6.46955 16.8917 6.23193 16.7354 5.98425 16.5725L3.05681 14.6475C2.5969 14.3451 2.18364 14.0734 1.89029 13.8112C1.57291 13.5276 1.27108 13.1472 1.25104 12.6081C1.23103 12.0697 1.50316 11.6677 1.7978 11.3605C2.07054 11.0761 2.46212 10.7727 2.89845 10.4346C2.91242 10.4238 2.92643 10.413 2.94049 10.4021L4.59212 9.12204L2.94049 7.84203C2.92644 7.83114 2.91243 7.82028 2.89846 7.80946C2.46213 7.47138 2.07054 7.16796 1.79779 6.88361C1.50316 6.57643 1.23103 6.1744 1.25104 5.63595C1.27108 5.09685 1.57291 4.71649 1.89029 4.43284C2.18364 4.17066 2.5969 3.89898 3.05682 3.59662C3.07163 3.58688 3.08649 3.57711 3.1014 3.56731L4.95987 2.34522C4.97169 2.33745 4.98348 2.3297 4.99522 2.32197C5.47804 2.00445 5.89439 1.73064 6.26101 1.54742Z" fill="#292D32"/>
</svg>
