<svg width="24" height="24" viewBox="0 0 24 24" fill="none" xmlns="http://www.w3.org/2000/svg">
  <path fill-rule="evenodd" clip-rule="evenodd" d="M7.79545 7.55556C7.79545 4.03018 10.8211 1.25 14.4545 1.25H17.8182C18.0778 1.25 18.3347 1.26185 18.567 1.30984C18.8054 1.35908 19.0681 1.45629 19.2895 1.66441C19.7253 2.07414 19.75 2.67813 19.75 3.11111V5.33333C19.75 5.76632 19.7253 6.37031 19.2895 6.78004C19.0681 6.98815 18.8054 7.08536 18.567 7.1346C18.3347 7.1826 18.0778 7.19444 17.8182 7.19444H14.4545C14.1718 7.19444 14.0227 7.39904 14.0227 7.55556V9.58333H16.4332C16.7659 9.58333 17.0836 9.59978 17.3588 9.6611C17.6337 9.72234 17.9585 9.84845 18.1936 10.1415C18.4349 10.4423 18.481 10.7918 18.467 11.0803C18.4533 11.3614 18.3793 11.6647 18.2872 11.9678L17.7807 13.6344C17.6765 13.9773 17.5206 14.4057 17.1304 14.6824C16.7516 14.9511 16.2955 14.9722 15.9267 14.9722H14.0227V20.8889C14.0227 21.3219 13.998 21.9259 13.5622 22.3356C13.3408 22.5437 13.0782 22.6409 12.8398 22.6902C12.6074 22.7382 12.3505 22.75 12.0909 22.75H9.72727C9.46768 22.75 9.2108 22.7382 8.97842 22.6902C8.74002 22.6409 8.47733 22.5437 8.25597 22.3356C7.82017 21.9259 7.79545 21.3219 7.79545 20.8889V14.9722H6.18182C5.92222 14.9722 5.66535 14.9604 5.43297 14.9124C5.19457 14.8631 4.93188 14.7659 4.71052 14.5578C4.27472 14.1481 4.25 13.5441 4.25 13.1111V11.4444C4.25 11.0115 4.27472 10.4075 4.71052 9.99774C4.93188 9.78963 5.19457 9.69242 5.43297 9.64318C5.66535 9.59518 5.92222 9.58333 6.18182 9.58333H7.79545V7.55556ZM14.4545 2.75C11.561 2.75 9.29545 4.94444 9.29545 7.55556V10.3333C9.29545 10.7475 8.95967 11.0833 8.54545 11.0833H6.18182C5.97991 11.0833 5.85089 11.0927 5.76773 11.1064C5.7576 11.1752 5.75 11.2814 5.75 11.4444V13.1111C5.75 13.2742 5.7576 13.3804 5.76773 13.4492C5.85089 13.4628 5.97991 13.4722 6.18182 13.4722H8.54545C8.95967 13.4722 9.29545 13.808 9.29545 14.2222V20.8889C9.29545 21.052 9.30306 21.1581 9.3132 21.2269C9.39636 21.2406 9.52537 21.25 9.72727 21.25H12.0909C12.2928 21.25 12.4218 21.2406 12.505 21.2269C12.5151 21.1581 12.5227 21.052 12.5227 20.8889V14.2222C12.5227 13.808 12.8585 13.4722 13.2727 13.4722H15.9267C16.0962 13.4722 16.1937 13.4639 16.2521 13.4531C16.274 13.4093 16.3046 13.333 16.3455 13.1983L16.852 11.5316C16.9094 11.3427 16.9413 11.2073 16.9569 11.1114C16.8427 11.0943 16.6755 11.0833 16.4332 11.0833H13.2727C12.8585 11.0833 12.5227 10.7475 12.5227 10.3333V7.55556C12.5227 6.48478 13.4319 5.69444 14.4545 5.69444H17.8182C18.0201 5.69444 18.1491 5.68504 18.2323 5.67138C18.2424 5.60258 18.25 5.49641 18.25 5.33333V3.11111C18.25 2.94803 18.2424 2.84186 18.2323 2.77306C18.1491 2.75941 18.0201 2.75 17.8182 2.75H14.4545ZM17.0969 11.144C17.0969 11.144 17.0963 11.1437 17.0951 11.1431L17.0969 11.144Z" fill="currentColor"/>
</svg>
