<svg width="24" height="24" viewBox="0 0 24 24" fill="none" xmlns="http://www.w3.org/2000/svg">
  <path fill-rule="evenodd" clip-rule="evenodd" d="M15 9.75C13.7574 9.75 12.75 10.7574 12.75 12C12.75 13.2426 13.7574 14.25 15 14.25C16.2426 14.25 17.25 13.2426 17.25 12C17.25 10.7574 16.2426 9.75 15 9.75ZM11.25 12C11.25 9.92893 12.9289 8.25 15 8.25C17.0711 8.25 18.75 9.92893 18.75 12C18.75 14.0711 17.0711 15.75 15 15.75C12.9289 15.75 11.25 14.0711 11.25 12Z" fill="#292D32"/>
  <path fill-rule="evenodd" clip-rule="evenodd" d="M9 15.75C7.75736 15.75 6.75 16.7574 6.75 18C6.75 19.2426 7.75736 20.25 9 20.25C10.2426 20.25 11.25 19.2426 11.25 18V15.75H9ZM5.25 18C5.25 15.9289 6.92893 14.25 9 14.25H12C12.4142 14.25 12.75 14.5858 12.75 15V18C12.75 20.0711 11.0711 21.75 9 21.75C6.92893 21.75 5.25 20.0711 5.25 18Z" fill="#292D32"/>
  <path fill-rule="evenodd" clip-rule="evenodd" d="M5.25 12C5.25 9.92893 6.92893 8.25 9 8.25H12C12.4142 8.25 12.75 8.58579 12.75 9V15C12.75 15.4142 12.4142 15.75 12 15.75H9C6.92893 15.75 5.25 14.0711 5.25 12ZM9 9.75C7.75736 9.75 6.75 10.7574 6.75 12C6.75 13.2426 7.75736 14.25 9 14.25H11.25V9.75H9Z" fill="#292D32"/>
  <path fill-rule="evenodd" clip-rule="evenodd" d="M5.25 6C5.25 3.92893 6.92893 2.25 9 2.25H12C12.4142 2.25 12.75 2.58579 12.75 3V9C12.75 9.41421 12.4142 9.75 12 9.75H9C6.92893 9.75 5.25 8.07107 5.25 6ZM9 3.75C7.75736 3.75 6.75 4.75736 6.75 6C6.75 7.24264 7.75736 8.25 9 8.25H11.25V3.75H9Z" fill="#292D32"/>
  <path fill-rule="evenodd" clip-rule="evenodd" d="M11.25 3C11.25 2.58579 11.5858 2.25 12 2.25H15C17.0711 2.25 18.75 3.92893 18.75 6C18.75 8.07107 17.0711 9.75 15 9.75H12C11.5858 9.75 11.25 9.41421 11.25 9V3ZM12.75 3.75V8.25H15C16.2426 8.25 17.25 7.24264 17.25 6C17.25 4.75736 16.2426 3.75 15 3.75H12.75Z" fill="#292D32"/>
</svg>
