<svg width="24" height="24" viewBox="0 0 24 24" fill="none" xmlns="http://www.w3.org/2000/svg">
  <path fill-rule="evenodd" clip-rule="evenodd" d="M1.67509 16.3242C2.04844 16.1448 2.49653 16.302 2.67593 16.6753C3.47683 18.342 4.50506 19.367 5.65635 19.868C6.80511 20.3679 8.17879 20.3908 9.76007 19.8571C10.1525 19.7246 10.5781 19.9353 10.7105 20.3278C10.843 20.7203 10.6323 21.1458 10.2398 21.2783C8.3925 21.9018 6.62332 21.9247 5.0578 21.2434C3.4948 20.5632 2.23731 19.2258 1.32393 17.325C1.14452 16.9517 1.30174 16.5036 1.67509 16.3242Z" fill="#292D32"/>
  <path fill-rule="evenodd" clip-rule="evenodd" d="M7.21435 1.30311C7.79627 1.40793 8.60363 1.69097 9.66434 2.35361C9.90055 2.50118 10.0481 2.59296 10.1616 2.65429C10.2204 2.68607 10.2537 2.70037 10.2687 2.70622C10.2851 2.70524 10.3229 2.70179 10.3924 2.68898C10.5237 2.66476 10.6987 2.6216 10.9764 2.55256C11.7699 2.35531 12.5869 2.25 13.5 2.25C14.4131 2.25 15.2301 2.35531 16.0236 2.55256C16.3013 2.6216 16.4763 2.66476 16.6076 2.68898C16.6771 2.70179 16.7149 2.70524 16.7313 2.70622C16.7463 2.70037 16.7796 2.68607 16.8384 2.65429C16.9519 2.59296 17.0994 2.50118 17.3357 2.35361C18.3964 1.69097 19.2037 1.40793 19.7857 1.30311C20.077 1.25064 20.3099 1.24322 20.4867 1.25461C20.5749 1.26029 20.6483 1.2706 20.7072 1.28196C20.7367 1.28763 20.7623 1.29355 20.7843 1.29924C20.7953 1.30209 20.8054 1.30487 20.8145 1.30754L20.8275 1.31145L20.8335 1.31332L20.8364 1.31423L20.8377 1.31468C20.8384 1.3149 20.8391 1.31512 20.6068 2.02823L20.8391 1.31512C21.0527 1.38471 21.2238 1.54635 21.3055 1.7556C21.7958 3.01219 21.8081 4.38056 21.4946 5.64046C21.4769 5.71162 21.4629 5.76766 21.4515 5.81608C21.4493 5.82552 21.4473 5.83433 21.4454 5.84257C21.4503 5.8498 21.4555 5.85755 21.4612 5.86585C21.4895 5.90708 21.5228 5.95453 21.5652 6.01473C22.3131 7.07736 22.75 8.3165 22.75 9.64606C22.75 11.9973 22.1853 13.6541 21.1059 14.8335C20.0994 15.9333 18.7288 16.5223 17.2593 16.9457C17.5581 17.4721 17.75 18.0719 17.75 18.7579V22C17.75 22.4142 17.4142 22.75 17 22.75C16.5858 22.75 16.25 22.4142 16.25 22V18.7579C16.25 18.3251 16.12 17.9419 15.8853 17.5701C15.4591 16.8948 15.6915 15.8226 16.6241 15.5662C18.1085 15.1582 19.2322 14.659 19.9994 13.8208C20.7478 13.0031 21.25 11.7565 21.25 9.64606C21.25 8.65571 20.9268 7.71377 20.3386 6.87807L20.875 6.50054L20.3386 6.87807L20.3278 6.86278C20.2541 6.75806 20.179 6.65138 20.1216 6.5571C20.0613 6.45797 19.9802 6.30956 19.9453 6.12282C19.9104 5.93639 19.9324 5.76905 19.9528 5.65476C19.9722 5.5463 20.0037 5.42002 20.0345 5.29628L20.039 5.27818C20.2484 4.43666 20.2671 3.57293 20.0617 2.77755C20.0584 2.77814 20.055 2.77874 20.0516 2.77935C19.6957 2.84345 19.0662 3.04114 18.1304 3.62578L18.1119 3.63734C17.8998 3.76983 17.7118 3.88729 17.5518 3.9738C17.3867 4.06303 17.1913 4.1537 16.9661 4.18944C16.7389 4.22549 16.5216 4.19841 16.3356 4.1641C16.1534 4.13051 15.9331 4.07574 15.6828 4.0135L15.6617 4.00826C14.9873 3.84059 14.2918 3.75 13.5 3.75C12.7082 3.75 12.0127 3.84059 11.3383 4.00826L11.3172 4.01349C11.0669 4.07574 10.8466 4.13051 10.6644 4.1641C10.4784 4.19841 10.2611 4.22549 10.0339 4.18944C9.8087 4.1537 9.61326 4.06303 9.44822 3.9738C9.28819 3.88729 9.10017 3.76982 8.88811 3.63734L8.86961 3.62578C7.93377 3.04114 7.30425 2.84345 6.94843 2.77935C6.94502 2.77874 6.94164 2.77814 6.93828 2.77755C6.7329 3.57293 6.75157 4.43666 6.96102 5.27818C6.96252 5.28421 6.96403 5.29026 6.96553 5.29631C6.99635 5.42004 7.02779 5.5463 7.04719 5.65476C7.06763 5.76905 7.08955 5.93639 7.05472 6.12283C7.01984 6.30955 6.9387 6.45796 6.87839 6.5571C6.82102 6.65139 6.74592 6.75806 6.67219 6.86278L6.66143 6.87807C6.07323 7.71377 5.75 8.65571 5.75 9.64606C5.75 11.7565 6.25225 13.0031 7.00063 13.8208C7.76778 14.659 8.89147 15.1582 10.3759 15.5662C11.3085 15.8226 11.5409 16.8948 11.1147 17.5701C10.88 17.9419 10.75 18.3251 10.75 18.7579V22C10.75 22.4142 10.4142 22.75 10 22.75C9.58579 22.75 9.25 22.4142 9.25 22V18.7579C9.25 18.0719 9.44191 17.4721 9.74065 16.9457C8.27124 16.5223 6.90062 15.9333 5.89409 14.8335C4.81472 13.6541 4.25 11.9973 4.25 9.64606C4.25 8.3165 4.68687 7.07736 5.43479 6.01472C5.47716 5.95453 5.51054 5.90708 5.53878 5.86585C5.54447 5.85755 5.54974 5.84981 5.55462 5.84257C5.55274 5.83433 5.55069 5.82552 5.54847 5.81608C5.53707 5.76766 5.52314 5.71162 5.50543 5.64046C5.19185 4.38056 5.20422 3.01219 5.69453 1.7556C5.77617 1.54635 5.94731 1.38471 6.16088 1.31512L6.39322 2.02823C6.16088 1.31512 6.16156 1.3149 6.16225 1.31468L6.16365 1.31423L6.1665 1.31332L6.17248 1.31145L6.18547 1.30754C6.1946 1.30487 6.20467 1.30209 6.21566 1.29924C6.23766 1.29355 6.26335 1.28763 6.29276 1.28196C6.35166 1.2706 6.42507 1.26029 6.51328 1.25461C6.69012 1.24322 6.92302 1.25064 7.21435 1.30311ZM5.57399 5.94137C5.57397 5.94135 5.57385 5.94035 5.5737 5.93848L5.57399 5.94137ZM5.60705 5.75997C5.60787 5.75825 5.60835 5.75736 5.60838 5.75734C5.60842 5.75732 5.60801 5.75818 5.60705 5.75997ZM21.3916 5.75734C21.3917 5.75736 21.3921 5.75827 21.393 5.75999C21.392 5.75817 21.3916 5.75731 21.3916 5.75734ZM21.4263 5.93849C21.4262 5.94037 21.426 5.94136 21.426 5.94137L21.4263 5.93849Z" fill="currentColor"/>
</svg>
