<svg width="24" height="24" viewBox="0 0 24 24" fill="none" xmlns="http://www.w3.org/2000/svg">
  <path fill-rule="evenodd" clip-rule="evenodd" d="M12 2.75C6.89138 2.75 2.75002 6.89137 2.75002 12C2.75002 13.6861 3.20045 15.2647 3.98704 16.6245C4.08671 16.7967 4.1138 17.0016 4.06235 17.1939L3.06002 20.94L6.80616 19.9377C6.99844 19.8862 7.20327 19.9133 7.37556 20.013C8.73535 20.7996 10.3139 21.25 12 21.25C17.1087 21.25 21.25 17.1086 21.25 12C21.25 6.89137 17.1087 2.75 12 2.75ZM1.25002 12C1.25002 6.06294 6.06296 1.25 12 1.25C17.9371 1.25 22.75 6.06294 22.75 12C22.75 17.9371 17.9371 22.75 12 22.75C10.1558 22.75 8.41808 22.285 6.8999 21.4653L2.19387 22.7245C1.93512 22.7937 1.65909 22.7197 1.46969 22.5303C1.28029 22.3409 1.20627 22.0649 1.2755 21.8061L2.53467 17.1001C1.71505 15.5819 1.25002 13.8443 1.25002 12Z" fill="currentColor"/>
  <path fill-rule="evenodd" clip-rule="evenodd" d="M6.25 9C6.25 8.58579 6.58579 8.25 7 8.25H7.00859C7.42281 8.25 7.75859 8.58579 7.75859 9C7.75859 9.41421 7.4228 9.75 7.00859 9.75H7C6.58579 9.75 6.25 9.41421 6.25 9ZM7.00112 10.25C7.41533 10.25 7.75112 10.5858 7.75112 11V15C7.75112 15.4142 7.41533 15.75 7.00112 15.75C6.58691 15.75 6.25112 15.4142 6.25112 15V11C6.25112 10.5858 6.58691 10.25 7.00112 10.25ZM10.1087 11.75C9.89364 11.75 9.66304 11.9421 9.66304 12.25V15C9.66304 15.4142 9.32726 15.75 8.91304 15.75C8.49883 15.75 8.16304 15.4142 8.16304 15V12.25C8.16304 11.1772 9.00307 10.25 10.1087 10.25C10.5663 10.25 10.9785 10.4089 11.3043 10.6711C11.6302 10.4089 12.0424 10.25 12.5 10.25C13.6056 10.25 14.4457 11.1772 14.4457 12.25V15C14.4457 15.4142 14.1099 15.75 13.6957 15.75C13.2814 15.75 12.9457 15.4142 12.9457 15V12.25C12.9457 11.9421 12.7151 11.75 12.5 11.75C12.2849 11.75 12.0543 11.9421 12.0543 12.25V15C12.0543 15.4142 11.7186 15.75 11.3043 15.75C10.8901 15.75 10.5543 15.4142 10.5543 15V12.25C10.5543 11.9421 10.3238 11.75 10.1087 11.75ZM16.8043 11.75C16.5893 11.75 16.3587 11.9421 16.3587 12.25V13.75C16.3587 14.0579 16.5893 14.25 16.8043 14.25C17.0194 14.25 17.25 14.0579 17.25 13.75V12.25C17.25 11.9421 17.0194 11.75 16.8043 11.75ZM14.8587 12.25C14.8587 11.1772 15.6987 10.25 16.8043 10.25C17.91 10.25 18.75 11.1772 18.75 12.25V13.75C18.75 14.8228 17.91 15.75 16.8043 15.75C15.6987 15.75 14.8587 14.8228 14.8587 13.75V12.25Z" fill="currentColor"/>
</svg>
