<svg width="24" height="24" viewBox="0 0 24 24" fill="none" xmlns="http://www.w3.org/2000/svg">
  <path fill-rule="evenodd" clip-rule="evenodd" d="M3.95526 8.75C3.97013 8.75001 3.98505 8.75001 4.00001 8.75001H4.50001C4.51496 8.75001 4.52988 8.75001 4.54476 8.75C4.97757 8.74995 5.3744 8.74991 5.69721 8.79331C6.05269 8.8411 6.42842 8.95355 6.73744 9.26257C7.04647 9.57159 7.15891 9.94732 7.20671 10.3028C7.25011 10.6256 7.25006 11.0224 7.25001 11.4553C7.25001 11.4701 7.25001 11.4851 7.25001 11.5V20C7.25001 20.015 7.25001 20.0299 7.25001 20.0448C7.25006 20.4776 7.25011 20.8744 7.20671 21.1972C7.15891 21.5527 7.04647 21.9284 6.73744 22.2374C6.42842 22.5465 6.0527 22.6589 5.69721 22.7067C5.3744 22.7501 4.97757 22.7501 4.54475 22.75H3.95526C3.52245 22.7501 3.12561 22.7501 2.8028 22.7067C2.44732 22.6589 2.07159 22.5465 1.76257 22.2374C1.45355 21.9284 1.3411 21.5527 1.29331 21.1972C1.24991 20.8744 1.24995 20.4776 1.25 20.0448L1.25001 11.5C1.25001 11.485 1.25001 11.4701 1.25 11.4553C1.24995 11.0224 1.24991 10.6256 1.29331 10.3028C1.3411 9.94732 1.45355 9.57159 1.76257 9.26257C2.07159 8.95355 2.44732 8.8411 2.8028 8.79331C3.12561 8.74991 3.52244 8.74995 3.95526 8.75ZM2.82324 10.3232L2.82568 10.3219C2.82761 10.3209 2.83093 10.3192 2.83597 10.3172C2.85775 10.3082 2.90611 10.2929 3.00267 10.2799C3.21339 10.2516 3.5074 10.25 4.00001 10.25H4.50001C4.99261 10.25 5.28662 10.2516 5.49734 10.2799C5.5939 10.2929 5.64226 10.3082 5.66404 10.3172C5.66909 10.3192 5.6724 10.3209 5.67434 10.3219L5.67677 10.3232L5.67815 10.3257C5.67916 10.3276 5.68077 10.3309 5.68285 10.336C5.69181 10.3578 5.7071 10.4061 5.72008 10.5027C5.74841 10.7134 5.75001 11.0074 5.75001 11.5V20C5.75001 20.4926 5.74841 20.7866 5.72008 20.9973C5.7071 21.0939 5.69181 21.1423 5.68285 21.164C5.68077 21.1691 5.67916 21.1724 5.67815 21.1743L5.67677 21.1768L5.67434 21.1781C5.6724 21.1792 5.66909 21.1808 5.66404 21.1828C5.64226 21.1918 5.5939 21.2071 5.49734 21.2201C5.28662 21.2484 4.99261 21.25 4.50001 21.25H4.00001C3.5074 21.25 3.21339 21.2484 3.00267 21.2201C2.90611 21.2071 2.85775 21.1918 2.83597 21.1828C2.83093 21.1808 2.82761 21.1792 2.82568 21.1781L2.82324 21.1768L2.82187 21.1743C2.82086 21.1724 2.81924 21.1691 2.81717 21.164C2.80821 21.1423 2.79291 21.0939 2.77993 20.9973C2.7516 20.7866 2.75001 20.4926 2.75001 20V11.5C2.75001 11.0074 2.7516 10.7134 2.77993 10.5027C2.79291 10.4061 2.80821 10.3578 2.81717 10.336C2.81924 10.3309 2.82086 10.3276 2.82187 10.3257L2.82324 10.3232ZM2.82324 21.1768C2.82284 21.1764 2.82297 21.1764 2.82324 21.1768C2.82359 21.177 2.8237 21.1772 2.82324 21.1768Z" fill="currentColor"/>
  <path fill-rule="evenodd" clip-rule="evenodd" d="M4.25 2.75C3.42157 2.75 2.75 3.42157 2.75 4.25C2.75 5.07843 3.42157 5.75 4.25 5.75C5.07843 5.75 5.75 5.07843 5.75 4.25C5.75 3.42157 5.07843 2.75 4.25 2.75ZM1.25 4.25C1.25 2.59315 2.59315 1.25 4.25 1.25C5.90685 1.25 7.25 2.59315 7.25 4.25C7.25 5.90685 5.90685 7.25 4.25 7.25C2.59315 7.25 1.25 5.90685 1.25 4.25Z" fill="currentColor"/>
  <path fill-rule="evenodd" clip-rule="evenodd" d="M11.4553 8.75C11.4701 8.75001 11.485 8.75001 11.5 8.75001H12.3261C12.3359 8.75001 12.3458 8.75001 12.3556 8.75001C12.6452 8.74998 12.9111 8.74996 13.1325 8.77024C13.3719 8.79217 13.6326 8.84259 13.8837 8.98952C14.143 9.14119 14.3588 9.35702 14.5105 9.61625C14.5146 9.62321 14.5186 9.63017 14.5225 9.63714C15.3122 9.0795 16.2655 8.75025 17.2968 8.75025C19.992 8.75025 22.7501 11.0445 22.7501 14.0002L22.7487 19.5455C22.7487 19.9782 22.7486 20.375 22.7052 20.6977C22.6573 21.0532 22.5448 21.4288 22.2358 21.7377C21.9268 22.0466 21.5511 22.1591 21.1957 22.2068C20.8729 22.2502 20.4762 22.2502 20.0435 22.2501H19.4552C19.0224 22.2502 18.6256 22.2502 18.3028 22.2068C17.9473 22.159 17.5716 22.0466 17.2625 21.7376C16.9535 21.4285 16.8411 21.0528 16.7933 20.6973C16.7499 20.3745 16.7499 19.9777 16.75 19.5449C16.75 19.53 16.75 19.5151 16.75 19.5001V15.0001C16.75 14.5426 16.4115 14.2501 16.0879 14.2501C15.5706 14.2501 15.2926 14.4485 15.1015 14.7658C14.8769 15.1388 14.7501 15.7288 14.7501 16.5001L14.75 20.0448C14.7501 20.4776 14.7501 20.8744 14.7067 21.1972C14.6589 21.5527 14.5465 21.9284 14.2374 22.2375C13.9284 22.5465 13.5527 22.6589 13.1972 22.7067C12.8744 22.7501 12.4776 22.7501 12.0448 22.75H11.4553C11.0224 22.7501 10.6256 22.7501 10.3028 22.7067C9.94732 22.6589 9.57159 22.5465 9.26257 22.2374C8.95355 21.9284 8.8411 21.5527 8.79331 21.1972C8.74991 20.8744 8.74995 20.4776 8.75 20.0448L8.75001 11.5C8.75001 11.485 8.75001 11.4701 8.75 11.4553C8.74995 11.0224 8.74991 10.6256 8.79331 10.3028C8.8411 9.94732 8.95355 9.57159 9.26257 9.26257C9.57159 8.95355 9.94732 8.8411 10.3028 8.79331C10.6256 8.74991 11.0224 8.74995 11.4553 8.75ZM10.3232 10.3232L10.3257 10.3219C10.3276 10.3209 10.3309 10.3192 10.336 10.3172C10.3578 10.3082 10.4061 10.2929 10.5027 10.2799C10.7134 10.2516 11.0074 10.25 11.5 10.25H12.3261C12.655 10.25 12.851 10.2507 12.9956 10.264C13.0828 10.272 13.1191 10.2824 13.1292 10.2859C13.164 10.3069 13.1931 10.3361 13.2141 10.3709C13.2177 10.3809 13.2281 10.4172 13.2361 10.5044C13.2493 10.649 13.2501 10.845 13.2501 11.174C13.2501 11.4959 13.4555 11.7818 13.7605 11.8847C14.0655 11.9875 14.4021 11.8842 14.597 11.628C15.2443 10.7771 16.2192 10.2502 17.2968 10.2502C19.2807 10.2502 21.2499 11.9854 21.2501 14.0001C21.2501 14 21.2501 14.0001 21.2501 14.0001L21.2487 19.5004C21.2486 19.9929 21.247 20.2869 21.2186 20.4975C21.2056 20.5941 21.1903 20.6424 21.1813 20.6642C21.1792 20.6692 21.1776 20.6725 21.1766 20.6745L21.1752 20.6769L21.1728 20.6783C21.1709 20.6793 21.1676 20.6809 21.1625 20.683C21.1407 20.6919 21.0924 20.7072 20.9958 20.7202C20.7852 20.7485 20.4912 20.7501 19.9987 20.7501H19.5C19.0074 20.7501 18.7134 20.7485 18.5026 20.7202C18.4061 20.7072 18.3577 20.6919 18.3359 20.683C18.3309 20.6809 18.3276 20.6793 18.3256 20.6783L18.3232 20.6769L18.3218 20.6745C18.3208 20.6725 18.3192 20.6692 18.3171 20.6642C18.3082 20.6424 18.2929 20.594 18.2799 20.4975C18.2516 20.2867 18.25 19.9927 18.25 19.5001V15.0001C18.25 13.8008 17.324 12.7501 16.0879 12.7501C15.0454 12.7501 14.2795 13.2234 13.8166 13.9918C13.3873 14.7046 13.2501 15.6146 13.2501 16.5001C13.2501 16.5001 13.2501 16.5001 13.2501 16.5001L13.25 20C13.25 20.4926 13.2484 20.7866 13.2201 20.9973C13.2071 21.0939 13.1918 21.1423 13.1829 21.164C13.1808 21.1691 13.1792 21.1724 13.1782 21.1743L13.1768 21.1768L13.1743 21.1781C13.1724 21.1792 13.1691 21.1808 13.1641 21.1828C13.1423 21.1918 13.0939 21.2071 12.9974 21.2201C12.7866 21.2484 12.4926 21.25 12 21.25H11.5C11.0074 21.25 10.7134 21.2484 10.5027 21.2201C10.4061 21.2071 10.3578 21.1918 10.336 21.1828C10.3309 21.1808 10.3276 21.1792 10.3257 21.1781L10.3232 21.1768L10.3219 21.1743C10.3209 21.1724 10.3192 21.1691 10.3172 21.164C10.3082 21.1423 10.2929 21.0939 10.2799 20.9973C10.2516 20.7866 10.25 20.4926 10.25 20V11.5C10.25 11.0074 10.2516 10.7134 10.2799 10.5027C10.2929 10.4061 10.3082 10.3578 10.3172 10.336C10.3192 10.3309 10.3209 10.3276 10.3219 10.3257L10.3232 10.3232ZM10.3232 21.1768C10.3228 21.1764 10.323 21.1764 10.3232 21.1768C10.3236 21.177 10.3237 21.1772 10.3232 21.1768ZM18.3232 20.6769C18.3232 20.6769 18.3232 20.6769 18.3232 20.6769V20.6769Z" fill="currentColor"/>
</svg>
