<svg width="24" height="24" viewBox="0 0 24 24" fill="none" xmlns="http://www.w3.org/2000/svg">
  <path fill-rule="evenodd" clip-rule="evenodd" d="M9.591 1.25L14.2631 1.25C17.7874 1.25 20.3902 4.53682 19.6118 7.97925C18.8491 11.3522 15.8642 13.75 12.4163 13.75H11.2543C10.9728 13.75 10.8949 13.7512 10.8349 13.7582C10.3295 13.8168 9.90836 14.1817 9.77776 14.6816C9.76223 14.741 9.7499 14.8191 9.71014 15.0989L9.23692 18.4285C9.1837 18.8032 9.13438 19.1505 9.05767 19.4318C8.97277 19.7431 8.8323 20.0641 8.53783 20.3208C8.24294 20.5779 7.90565 20.6728 7.58545 20.7135C7.2969 20.7501 6.94725 20.7501 6.57095 20.75H6.07827C5.5758 20.7501 5.12131 20.7501 4.75801 20.6983C4.36153 20.6417 3.9388 20.507 3.62078 20.1297C3.3034 19.7531 3.2413 19.3139 3.25092 18.9135C3.25976 18.5456 3.33441 18.0958 3.41715 17.5971L5.55889 4.68085C5.64599 4.15548 5.71917 3.71411 5.81095 3.35664C5.9074 2.98093 6.03846 2.63654 6.27466 2.3272C6.51257 2.01561 6.81433 1.75857 7.15982 1.5736C7.50322 1.38975 7.86397 1.31619 8.24945 1.28224C8.61584 1.24998 9.06143 1.24999 9.591 1.25ZM8.38104 2.77646C8.09997 2.80121 7.96299 2.84505 7.86782 2.896C7.71173 2.97957 7.57495 3.09594 7.46686 3.2375C7.40053 3.32437 7.33456 3.45415 7.26383 3.72964C7.19024 4.01625 7.12717 4.39262 7.03347 4.95768L4.90501 17.7939C4.81165 18.3569 4.75647 18.7005 4.75049 18.9496C4.74771 19.0651 4.75735 19.124 4.76431 19.1506C4.76582 19.1564 4.76711 19.1602 4.76796 19.1625C4.76994 19.1637 4.77307 19.1653 4.77761 19.1673C4.80149 19.1781 4.85676 19.1972 4.96986 19.2133C5.21433 19.2482 5.55963 19.25 6.12784 19.25H6.53027C6.96131 19.25 7.21392 19.2486 7.39653 19.2254C7.47944 19.2149 7.52128 19.2026 7.54024 19.1954C7.54787 19.1925 7.55136 19.1906 7.55211 19.1902C7.55234 19.1899 7.55522 19.1863 7.55984 19.1779C7.56998 19.1593 7.58828 19.1187 7.61053 19.0371C7.65941 18.8579 7.69662 18.6059 7.75754 18.1773L8.22506 14.8878C8.227 14.8742 8.22891 14.8608 8.23079 14.8475C8.26208 14.6269 8.28628 14.4562 8.32648 14.3024C8.61245 13.2079 9.53833 12.3986 10.6621 12.2682C10.8199 12.2499 10.992 12.2499 11.2134 12.25C11.2269 12.25 11.2405 12.25 11.2543 12.25H12.4163C15.1583 12.25 17.5396 10.3425 18.1487 7.64843C18.7171 5.1347 16.8158 2.75 14.2631 2.75H9.62311C9.05298 2.75 8.67382 2.75068 8.38104 2.77646ZM7.55211 19.1902C7.55209 19.1902 7.55213 19.1901 7.55211 19.1902V19.1902Z" fill="#292D32"/>
  <path fill-rule="evenodd" clip-rule="evenodd" d="M20.1731 11.5701C20.4877 10.1695 19.8063 8.81244 18.6335 8.15524L19.3667 6.84668C21.0812 7.80739 22.1058 9.81056 21.6366 11.8989C20.9986 14.7386 18.4556 16.7498 15.529 16.7498H13.7259C13.5919 16.7498 13.4876 16.8447 13.4682 16.9601L12.7388 21.2889C12.5957 22.1379 11.8564 22.7498 11.0019 22.7498H9.01137C7.93034 22.7498 7.09042 21.7839 7.27541 20.7057L7.50405 19.373L8.98245 19.6267L8.75381 20.9593C8.72935 21.1019 8.8405 21.2498 9.01137 21.2498H11.0019C11.136 21.2498 11.2402 21.155 11.2596 21.0396L11.989 16.7108C12.1321 15.8618 12.8714 15.2498 13.7259 15.2498H15.529C17.7646 15.2498 19.6912 13.7147 20.1731 11.5701Z" fill="#292D32"/>
</svg>
