<svg width="24" height="24" viewBox="0 0 24 24" fill="none" xmlns="http://www.w3.org/2000/svg">
  <path fill-rule="evenodd" clip-rule="evenodd" d="M10.2947 9.20982C9.8859 9.48236 9.75 9.7765 9.75 10C9.75 10.2235 9.8859 10.5176 10.2947 10.7902C10.6983 11.0592 11.299 11.25 12 11.25C12.9558 11.25 13.8551 11.5069 14.5373 11.9617C15.2143 12.4131 15.75 13.1189 15.75 14C15.75 14.8811 15.2143 15.5869 14.5373 16.0383C13.8551 16.4931 12.9558 16.75 12 16.75C11.0442 16.75 10.1449 16.4931 9.46265 16.0383C8.78567 15.5869 8.25 14.8811 8.25 14C8.25 13.5858 8.58579 13.25 9 13.25C9.41421 13.25 9.75 13.5858 9.75 14C9.75 14.2235 9.8859 14.5176 10.2947 14.7902C10.6983 15.0592 11.299 15.25 12 15.25C12.701 15.25 13.3017 15.0592 13.7053 14.7902C14.1141 14.5176 14.25 14.2235 14.25 14C14.25 13.7765 14.1141 13.4824 13.7053 13.2098C13.3017 12.9408 12.701 12.75 12 12.75C11.0442 12.75 10.1449 12.4931 9.46265 12.0383C8.78567 11.5869 8.25 10.8811 8.25 10C8.25 9.11893 8.78567 8.41307 9.46265 7.96175C10.1449 7.50693 11.0442 7.25 12 7.25C12.9558 7.25 13.8551 7.50693 14.5373 7.96175C15.2143 8.41307 15.75 9.11893 15.75 10C15.75 10.4142 15.4142 10.75 15 10.75C14.5858 10.75 14.25 10.4142 14.25 10C14.25 9.7765 14.1141 9.48236 13.7053 9.20982C13.3017 8.94078 12.701 8.75 12 8.75C11.299 8.75 10.6983 8.94078 10.2947 9.20982Z" fill="currentColor"/>
  <path fill-rule="evenodd" clip-rule="evenodd" d="M6 4.75C4.20507 4.75 2.75 6.20507 2.75 8C2.75 8.84477 3.07132 9.61276 3.5997 10.1912C3.93001 10.5528 4.22152 10.8813 4.42465 11.2724C4.63877 11.6847 4.73073 12.1147 4.77947 12.6553C4.9266 14.2872 5.6241 15.8772 6.87348 17.1265C8.84781 19.1009 11.6783 19.6995 14.1732 18.9184C14.6919 18.7559 15.1245 18.6764 15.5875 18.7157C16.0266 18.753 16.4423 18.8954 16.9037 19.0607C17.2452 19.183 17.6139 19.25 18 19.25C19.7949 19.25 21.25 17.7949 21.25 16C21.25 15.1552 20.9287 14.3872 20.4003 13.8088C20.07 13.4473 19.7785 13.1187 19.5754 12.7276C19.3612 12.3153 19.2693 11.8853 19.2205 11.3447C19.0734 9.71285 18.3759 8.12285 17.1265 6.87348C15.1522 4.89914 12.3217 4.30051 9.82683 5.08165C9.3081 5.24406 8.87552 5.32364 8.41249 5.2843C7.97337 5.24699 7.55772 5.10463 7.09635 4.93935C6.75482 4.81699 6.38605 4.75 6 4.75ZM1.25 8C1.25 5.37665 3.37665 3.25 6 3.25C6.56092 3.25 7.1007 3.34755 7.60225 3.52723C8.08379 3.69975 8.32336 3.77133 8.53948 3.78969C8.7317 3.80602 8.95439 3.78301 9.37864 3.65017L9.60274 4.36591L9.37864 3.65017C12.3852 2.70883 15.8027 3.42835 18.1872 5.81282C19.694 7.31968 20.537 9.24131 20.7145 11.21C20.7544 11.6528 20.8183 11.8663 20.9065 12.0363C21.0058 12.2274 21.1632 12.42 21.5078 12.7971C22.2788 13.6411 22.75 14.7664 22.75 16C22.75 18.6234 20.6234 20.75 18 20.75C17.4391 20.75 16.8993 20.6525 16.3977 20.4728C15.9162 20.3003 15.6766 20.2287 15.4605 20.2103C15.2683 20.194 15.0456 20.217 14.6214 20.3498C11.6148 21.2912 8.19728 20.5716 5.81282 18.1872C4.30596 16.6803 3.46303 14.7587 3.28553 12.79C3.24561 12.3472 3.18173 12.1337 3.09346 11.9637C2.99419 11.7726 2.83676 11.58 2.49223 11.2029C1.72124 10.3589 1.25 9.2336 1.25 8Z" fill="currentColor"/>
</svg>
