<svg width="24" height="24" viewBox="0 0 24 24" fill="none" xmlns="http://www.w3.org/2000/svg">
  <path fill-rule="evenodd" clip-rule="evenodd" d="M5.82557 7.42444C5.82557 4.01439 8.58996 1.25 12 1.25C15.4101 1.25 18.1745 4.01439 18.1745 7.42444C18.1745 9.82863 18.2438 11.4509 18.7761 12.711C19.2783 13.9002 20.2393 14.8552 22.3007 15.7574C22.5947 15.886 22.7742 16.1874 22.7474 16.5072C22.7205 16.827 22.4932 17.0942 22.1819 17.1721C21.0852 17.4462 20.5691 17.6861 20.2387 18.0164C19.9083 18.3468 19.6685 18.863 19.3943 19.9597C19.3108 20.2936 19.0108 20.5278 18.6667 20.5278C16.9013 20.5278 15.9257 21.0204 15.1014 21.5276C14.9923 21.5948 14.8813 21.666 14.7677 21.7389C14.0354 22.2087 13.1916 22.75 12 22.75C10.8084 22.75 9.96461 22.2087 9.23231 21.7389C9.11868 21.666 9.00775 21.5948 8.89861 21.5276C8.07431 21.0204 7.09877 20.5278 5.33335 20.5278C4.9892 20.5278 4.68921 20.2936 4.60574 19.9597C4.33157 18.863 4.09174 18.3468 3.76135 18.0164C3.43097 17.6861 2.91481 17.4462 1.81811 17.1721C1.5068 17.0942 1.2795 16.827 1.25265 16.5072C1.22579 16.1874 1.40535 15.886 1.69932 15.7574C3.76077 14.8552 4.72169 13.9002 5.22398 12.711C5.75621 11.4509 5.82557 9.82863 5.82557 7.42444ZM12 2.75C9.41839 2.75 7.32557 4.84282 7.32557 7.42444C7.32557 9.76804 7.2766 11.7064 6.60578 13.2946C6.08874 14.5187 5.23088 15.4826 3.90187 16.3042C4.24941 16.4791 4.5556 16.6894 4.82201 16.9558C5.35478 17.4885 5.66285 18.1804 5.91309 19.0439C7.69037 19.1447 8.79635 19.7034 9.68476 20.2501C9.82613 20.3371 9.95704 20.4196 10.08 20.4971C10.8209 20.9641 11.2747 21.25 12 21.25C12.7253 21.25 13.1791 20.9641 13.92 20.4971C14.043 20.4196 14.1739 20.3371 14.3153 20.2501C15.2037 19.7034 16.3097 19.1447 18.0869 19.0439C18.3372 18.1804 18.6453 17.4885 19.178 16.9558C19.4444 16.6894 19.7506 16.4791 20.0982 16.3042C18.7692 15.4826 17.9113 14.5187 17.3943 13.2946C16.7234 11.7064 16.6745 9.76804 16.6745 7.42444C16.6745 4.84282 14.5816 2.75 12 2.75Z" fill="currentColor"/>
  <path fill-rule="evenodd" clip-rule="evenodd" d="M2.43304 8.4622C2.73006 8.17349 3.20489 8.18023 3.49359 8.47725C4.93356 9.95869 5.89182 11.4133 5.73283 12.9048C5.57057 14.4268 4.2965 15.603 2.35868 16.6586C1.99494 16.8568 1.53943 16.7225 1.34128 16.3588C1.14313 15.995 1.27737 15.5395 1.64112 15.3414C3.52685 14.3141 4.16456 13.4655 4.24128 12.7458C4.32125 11.9956 3.84569 10.9916 2.41798 9.52275C2.12928 9.22573 2.13602 8.7509 2.43304 8.4622Z" fill="currentColor"/>
  <path fill-rule="evenodd" clip-rule="evenodd" d="M21.5667 8.4622C21.8638 8.7509 21.8705 9.22573 21.5818 9.52275C20.1541 10.9916 19.6785 11.9956 19.7585 12.7458C19.8352 13.4655 20.4729 14.3141 22.3587 15.3414C22.7224 15.5395 22.8567 15.995 22.6585 16.3588C22.4604 16.7225 22.0049 16.8568 21.6411 16.6586C19.7033 15.603 18.4292 14.4268 18.267 12.9048C18.108 11.4133 19.0662 9.95869 20.5062 8.47725C20.7949 8.18023 21.2697 8.17349 21.5667 8.4622Z" fill="currentColor"/>
</svg>
