<svg width="24" height="24" viewBox="0 0 24 24" fill="none" xmlns="http://www.w3.org/2000/svg">
  <path fill-rule="evenodd" clip-rule="evenodd" d="M12 2.75C6.89137 2.75 2.75 6.89137 2.75 12C2.75 17.1086 6.89137 21.25 12 21.25C17.1086 21.25 21.25 17.1086 21.25 12C21.25 6.89137 17.1086 2.75 12 2.75ZM1.25 12C1.25 6.06294 6.06294 1.25 12 1.25C17.9371 1.25 22.75 6.06294 22.75 12C22.75 17.9371 17.9371 22.75 12 22.75C6.06294 22.75 1.25 17.9371 1.25 12Z" fill="currentColor"/>
  <path fill-rule="evenodd" clip-rule="evenodd" d="M11.4999 8.75C10.0051 8.75 8.58349 9.05275 7.2922 9.59911C6.91073 9.76051 6.47064 9.58212 6.30923 9.20064C6.14783 8.81917 6.32623 8.37908 6.7077 8.21768C8.18072 7.59442 9.80089 7.25 11.4999 7.25C14.0674 7.25 16.4527 8.03632 18.4227 9.38048C18.7648 9.61394 18.8529 10.0806 18.6195 10.4227C18.386 10.7649 17.9194 10.853 17.5772 10.6195C15.849 9.44029 13.7569 8.75 11.4999 8.75ZM10.9999 12.25C9.85845 12.25 8.76199 12.4363 7.73843 12.7796C7.34572 12.9113 6.92059 12.6997 6.78888 12.307C6.65717 11.9143 6.86875 11.4892 7.26147 11.3574C8.43679 10.9633 9.69423 10.75 10.9999 10.75C13.1605 10.75 15.1869 11.3338 16.9276 12.3527C17.2851 12.562 17.4053 13.0214 17.196 13.3789C16.9868 13.7364 16.5273 13.8565 16.1699 13.6473C14.6527 12.7592 12.887 12.25 10.9999 12.25ZM11.0017 15.75C10.249 15.75 9.5209 15.8506 8.82969 16.0387C8.43001 16.1475 8.01784 15.9116 7.90908 15.512C7.80032 15.1123 8.03615 14.7001 8.43583 14.5913C9.25423 14.3686 10.1147 14.25 11.0017 14.25C12.612 14.25 14.1331 14.6409 15.4733 15.3338C15.8413 15.524 15.9854 15.9765 15.7952 16.3444C15.6049 16.7124 15.1525 16.8565 14.7845 16.6662C13.6522 16.0809 12.3667 15.75 11.0017 15.75Z" fill="currentColor"/>
</svg>
