<svg width="24" height="24" viewBox="0 0 24 24" fill="none" xmlns="http://www.w3.org/2000/svg">
  <path fill-rule="evenodd" clip-rule="evenodd" d="M20.1444 3.82654C19.4819 3.97917 18.5865 4.33238 17.2829 4.84995L5.41552 9.56162C4.37096 9.97634 3.66059 10.2601 3.1949 10.5203C2.9661 10.6482 2.84613 10.7441 2.78637 10.809C2.76356 10.8338 2.75439 10.849 2.7515 10.8543C2.74954 10.8777 2.7495 10.9012 2.75139 10.9245C2.75425 10.9299 2.76339 10.9451 2.78618 10.97C2.84577 11.0352 2.96548 11.1315 3.19391 11.2601C3.65881 11.5219 4.36832 11.808 5.4116 12.2262C5.45562 12.2439 5.4991 12.2613 5.54204 12.2784C6.33981 12.5974 6.95302 12.8425 7.40132 13.3225C7.45123 13.3759 7.49917 13.4312 7.54505 13.4882C7.95362 13.9959 8.12285 14.6448 8.34726 15.5052C8.35922 15.5511 8.37134 15.5976 8.38365 15.6446L8.8721 17.5112C8.94654 17.7957 9.00457 18.0152 9.05517 18.1866C9.16017 18.0494 9.28826 17.8724 9.45264 17.6439L11.012 15.477C10.882 15.3404 10.7536 15.2008 10.6556 15.0668C10.5152 14.8751 10.3751 14.6152 10.3751 14.2775C10.3751 13.9399 10.5152 13.68 10.6556 13.4882C10.7762 13.3235 10.9426 13.1501 11.1016 12.9845C11.1099 12.9758 11.1182 12.9672 11.1265 12.9586L14.6994 9.2349C14.9862 8.93602 15.461 8.92621 15.7599 9.21299C16.0587 9.49976 16.0685 9.97454 15.7818 10.2734L12.2088 13.9972C12.1165 14.0934 12.0445 14.1685 11.9843 14.2344C11.9701 14.25 11.9573 14.2643 11.9456 14.2775C11.9573 14.2907 11.9701 14.3051 11.9843 14.3207C12.0445 14.3866 12.1165 14.4617 12.2088 14.5579L12.5266 14.8891C12.5341 14.8969 12.5414 14.9049 12.5486 14.913L15.79 18.5983C16.4074 19.3003 16.8147 19.7604 17.1409 20.0364C17.2986 20.1699 17.3954 20.2229 17.4466 20.2423C17.4554 20.2456 17.4619 20.2476 17.4663 20.2487C17.467 20.2481 17.4679 20.2473 17.4688 20.2465C17.4732 20.2426 17.48 20.2359 17.489 20.2252C17.5296 20.1775 17.5927 20.0777 17.6711 19.8798C17.8329 19.4717 17.9812 18.8615 18.2025 17.9389L20.5936 7.97102C20.9312 6.56345 21.1634 5.58782 21.2309 4.87629C21.299 4.15867 21.1723 3.95579 21.0716 3.86264C20.9837 3.78135 20.8048 3.67439 20.1444 3.82654ZM12.0442 16.6108L10.6395 18.5627C10.3765 18.9282 10.1324 19.2676 9.90771 19.5002C9.68445 19.7313 9.27877 20.071 8.71374 19.9586C8.15614 19.8477 7.90592 19.3867 7.78203 19.0909C7.65621 18.7904 7.54964 18.3829 7.43402 17.9409L6.93252 16.0244C6.65396 14.9599 6.55778 14.6539 6.37651 14.4287C6.35364 14.4003 6.32981 14.3728 6.30509 14.3464C6.11372 14.1415 5.84345 14.0154 4.8535 13.6185L4.7993 13.5968C3.82369 13.2058 3.02007 12.8837 2.45798 12.5672C1.91344 12.2606 1.3254 11.8149 1.25775 11.0628C1.24724 10.9459 1.24742 10.8283 1.25829 10.7114C1.32825 9.9595 1.91775 9.51565 2.46325 9.21086C3.02632 8.89625 3.83094 8.57681 4.80773 8.18903L16.7918 3.43101C18.0177 2.94428 19.02 2.54628 19.8076 2.36483C20.6106 2.17984 21.4401 2.16025 22.0901 2.76149C22.7273 3.35088 22.8036 4.18116 22.7242 5.01796C22.6454 5.84819 22.3864 6.92791 22.0669 8.25979L19.6472 18.3468C19.4436 19.1958 19.2717 19.9125 19.0655 20.4326C18.8573 20.958 18.5233 21.5221 17.8484 21.7006C17.1654 21.8812 16.6009 21.5445 16.1719 21.1814C15.7505 20.8248 15.2699 20.2784 14.704 19.6349L12.0442 16.6108Z" fill="currentColor"/>
</svg>
