<svg width="24" height="24" viewBox="0 0 24 24" fill="none" xmlns="http://www.w3.org/2000/svg">
  <path fill-rule="evenodd" clip-rule="evenodd" d="M11.9428 1.75H12.0572C14.2479 1.74999 15.9686 1.74998 17.312 1.93059C18.6886 2.11568 19.7809 2.50272 20.6391 3.36091C21.4973 4.21911 21.8843 5.31137 22.0694 6.68802C22.25 8.03144 22.25 9.75212 22.25 11.9428V12.0572C22.25 14.2479 22.25 15.9686 22.0694 17.312C21.8843 18.6886 21.4973 19.7809 20.6391 20.6391C19.7809 21.4973 18.6886 21.8843 17.312 22.0694C15.9686 22.25 14.2479 22.25 12.0572 22.25H11.9428C9.75212 22.25 8.03144 22.25 6.68802 22.0694C5.31137 21.8843 4.21911 21.4973 3.36091 20.6391C2.50272 19.7809 2.11568 18.6886 1.93059 17.312C1.74998 15.9686 1.74999 14.2479 1.75 12.0572V11.9428C1.74999 9.75212 1.74998 8.03144 1.93059 6.68802C2.11568 5.31137 2.50272 4.21911 3.36091 3.36091C4.21911 2.50272 5.31137 2.11568 6.68802 1.93059C8.03144 1.74998 9.75212 1.74999 11.9428 1.75ZM6.8879 3.41722C5.67757 3.57994 4.95462 3.88853 4.42157 4.42157C3.88853 4.95462 3.57994 5.67757 3.41722 6.8879C3.25159 8.11979 3.25 9.73963 3.25 12C3.25 14.2604 3.25159 15.8802 3.41722 17.1121C3.57994 18.3224 3.88853 19.0454 4.42157 19.5784C4.95462 20.1115 5.67757 20.4201 6.8879 20.5828C8.11979 20.7484 9.73963 20.75 12 20.75C14.2604 20.75 15.8802 20.7484 17.1121 20.5828C18.3224 20.4201 19.0454 20.1115 19.5784 19.5784C20.1115 19.0454 20.4201 18.3224 20.5828 17.1121C20.7484 15.8802 20.75 14.2604 20.75 12C20.75 9.73963 20.7484 8.11979 20.5828 6.8879C20.4201 5.67757 20.1115 4.95462 19.5784 4.42157C19.0454 3.88853 18.3224 3.57994 17.1121 3.41722C15.8802 3.25159 14.2604 3.25 12 3.25C9.73963 3.25 8.11979 3.25159 6.8879 3.41722Z" fill="currentColor"/>
  <path fill-rule="evenodd" clip-rule="evenodd" d="M13.5 5.25C13.9142 5.25 14.25 5.58579 14.25 6C14.25 6.68835 14.62 7.36819 15.2559 7.89923C15.8924 8.4308 16.7254 8.75 17.5 8.75C17.9142 8.75 18.25 9.08579 18.25 9.5C18.25 9.91421 17.9142 10.25 17.5 10.25C16.3416 10.25 15.1746 9.7857 14.2944 9.05052C14.2795 9.03812 14.2647 9.02562 14.25 9.01303V14.5C14.25 16.8472 12.3472 18.75 10 18.75C7.65279 18.75 5.75 16.8472 5.75 14.5C5.75 12.1528 7.65279 10.25 10 10.25C10.2054 10.25 10.4078 10.2646 10.6062 10.293C11.0162 10.3517 11.3011 10.7316 11.2424 11.1416C11.1838 11.5517 10.8038 11.8365 10.3938 11.7779C10.2656 11.7595 10.1341 11.75 10 11.75C8.48122 11.75 7.25 12.9812 7.25 14.5C7.25 16.0188 8.48122 17.25 10 17.25C11.5188 17.25 12.75 16.0188 12.75 14.5V6C12.75 5.58579 13.0858 5.25 13.5 5.25Z" fill="currentColor"/>
</svg>
