<svg width="24" height="24" viewBox="0 0 24 24" fill="none" xmlns="http://www.w3.org/2000/svg">
  <path fill-rule="evenodd" clip-rule="evenodd" d="M12 6.25C12.4142 6.25 12.75 6.58579 12.75 7V11C12.75 11.4142 12.4142 11.75 12 11.75C11.5858 11.75 11.25 11.4142 11.25 11V7C11.25 6.58579 11.5858 6.25 12 6.25ZM16 6.25C16.4142 6.25 16.75 6.58579 16.75 7V11C16.75 11.4142 16.4142 11.75 16 11.75C15.5858 11.75 15.25 11.4142 15.25 11V7C15.25 6.58579 15.5858 6.25 16 6.25Z" fill="#292D32"/>
  <path fill-rule="evenodd" clip-rule="evenodd" d="M7.94819 2.25H16.0519C16.9505 2.24997 17.6995 2.24995 18.2941 2.32959C18.9214 2.41361 19.488 2.59839 19.9436 3.05225C20.3995 3.5065 20.5856 4.07209 20.6701 4.69834C20.7501 5.29126 20.7501 6.03799 20.75 6.93281V11.3117C20.75 11.3524 20.7501 11.3927 20.7501 11.4325C20.7508 12.128 20.7513 12.6799 20.5403 13.1874C20.3294 13.6946 19.9377 14.0841 19.4436 14.5754C19.4153 14.6035 19.3867 14.632 19.3578 14.6608L18.7009 15.3152C18.6721 15.3439 18.6437 15.3722 18.6156 15.4002C18.122 15.893 17.7314 16.2829 17.2231 16.4926C16.715 16.7023 16.1627 16.7017 15.4639 16.7011C15.4241 16.701 15.3839 16.701 15.3432 16.701H11.4807C11.4317 16.701 11.393 16.701 11.3598 16.7013C11.3389 16.7268 11.315 16.7567 11.2846 16.7945L9.33214 19.2258C8.9904 19.6515 8.68623 20.0303 8.42223 20.2816C8.19192 20.5008 7.70634 20.9066 7.08711 20.6902C6.4663 20.4732 6.34101 19.8516 6.29857 19.5368C6.24993 19.176 6.24998 18.6907 6.25003 18.1458L6.25003 16.701C5.9795 16.7008 5.76396 16.6979 5.57027 16.6673C4.39513 16.4819 3.47077 15.563 3.28396 14.388C3.24979 14.1731 3.24989 13.9314 3.25002 13.6187C3.25002 13.5994 3.25003 13.5799 3.25003 13.56L3.25003 6.93279C3.25 6.03798 3.24997 5.29126 3.32999 4.69834C3.41451 4.07209 3.60052 3.5065 4.05649 3.05225C4.51207 2.59839 5.07864 2.41361 5.70592 2.32959C6.30052 2.24995 7.04957 2.24997 7.94819 2.25ZM5.90505 3.81631C5.44308 3.87819 5.24535 3.9852 5.11514 4.11491C4.98533 4.24424 4.87845 4.44007 4.81652 4.89896C4.75164 5.37972 4.75003 6.02439 4.75003 6.98492V13.56C4.75003 13.959 4.75238 14.0708 4.76535 14.1525C4.84963 14.6825 5.26762 15.101 5.80406 15.1856C5.88679 15.1987 5.99987 15.201 6.40003 15.201C6.40627 15.201 6.41301 15.201 6.42022 15.2009C6.4874 15.2007 6.59436 15.2004 6.69514 15.2163C7.22844 15.3004 7.64942 15.7178 7.73457 16.2534C7.75065 16.3545 7.7503 16.4618 7.75008 16.5287C7.75005 16.5358 7.75003 16.5425 7.75003 16.5487V18.0921C7.75003 18.3689 7.75037 18.5984 7.75379 18.7896C7.87684 18.6419 8.02161 18.4622 8.19611 18.2448L10.115 15.8553C10.1244 15.8436 10.1345 15.8307 10.1454 15.817C10.2531 15.6803 10.4339 15.451 10.6999 15.3237M5.90505 3.81631C6.38831 3.75158 7.0361 3.75 8.00003 3.75L5.90505 3.81631ZM18.095 3.81631C17.6117 3.75158 16.964 3.75 16 3.75H8.00003M18.095 3.81631C18.557 3.87819 18.7547 3.9852 18.8849 4.11491L18.095 3.81631ZM18.8849 4.11491L19.4061 3.59173L18.8849 4.11491ZM18.8849 4.11491L19.4061 3.59173L18.8849 4.11491ZM18.8849 4.11491C19.0147 4.24424 19.1216 4.44007 19.1835 4.89896L18.8849 4.11491ZM19.1835 4.89896C19.2484 5.37972 19.25 6.02439 19.25 6.98492L19.1835 4.89896ZM19.25 6.98492V11.3117V6.98492ZM19.25 11.3117C19.25 12.1875 19.2367 12.4158 19.1553 12.6115L19.25 11.3117ZM19.1553 12.6115C19.0737 12.8076 18.9207 12.9789 18.2991 13.5981L19.1553 12.6115ZM18.2991 13.5981L17.6423 14.2525L18.2991 13.5981ZM17.6423 14.2525C17.021 14.8714 16.8487 15.0244 16.6509 15.106L17.6423 14.2525ZM16.6509 15.106C16.4527 15.1878 16.2217 15.201 15.3432 15.201L16.6509 15.106ZM11.4316 15.2007C11.4492 15.2008 11.4656 15.201 11.4807 15.201H15.3432M11.4316 15.2007C11.2572 15.1992 10.9654 15.1966 10.6999 15.3237L11.4316 15.2007Z" fill="#292D32"/>
</svg>
