<svg width="24" height="24" viewBox="0 0 24 24" fill="none" xmlns="http://www.w3.org/2000/svg">
  <path fill-rule="evenodd" clip-rule="evenodd" d="M11.8337 9.19765C11.9598 9.74024 12.0891 10.2971 12.2275 10.8486C12.5154 11.9964 12.8461 12.6234 13.1279 12.9386C13.3748 13.2147 13.5563 13.2304 13.7021 13.2062C13.9126 13.1712 14.1984 13.0156 14.5258 12.703C14.8386 12.4043 15.1276 12.0209 15.3512 11.6514C15.9503 10.5746 16.206 9.82446 16.2751 9.31254C16.3415 8.82098 16.2324 8.59664 16.1377 8.47827C16.0226 8.33421 15.819 8.21046 15.4887 8.10543C15.2586 8.03223 15.0495 7.98938 14.8209 7.94253C14.6969 7.91711 14.5671 7.89051 14.4251 7.85724C14.1934 7.80298 14.0012 7.64201 13.9072 7.42346C13.8131 7.2049 13.8284 6.95469 13.9482 6.74916C14.4654 5.86242 15.6931 4.69453 17.0876 3.97948C18.4724 3.26938 20.3093 2.87359 21.8123 4.06674C22.4163 4.5463 22.6749 5.25186 22.7352 5.98148C22.7951 6.70533 22.6689 7.52393 22.4331 8.36513C21.9602 10.0522 20.9958 12.0064 19.8377 13.8346C18.6773 15.6663 17.2928 17.4185 15.9473 18.6921C15.2756 19.3279 14.5935 19.8637 13.936 20.2275C13.3093 20.5743 12.6218 20.811 11.9515 20.7363C10.808 20.7201 9.93717 20.1289 9.29272 19.3072C8.65497 18.4941 8.20042 17.4132 7.84736 16.2955C7.49144 15.1687 7.21936 13.9391 6.97726 12.7963C6.94397 12.6392 6.91131 12.484 6.87912 12.3311C6.67355 11.3545 6.48713 10.469 6.27908 9.74329C6.0804 9.05031 5.83276 8.84895 5.70807 8.78933C5.58357 8.72979 5.37687 8.71381 5.0368 8.85965C4.43118 9.11937 3.7161 9.22673 3.05082 9.10721C2.37466 8.98574 1.69817 8.61409 1.32966 7.8795C1.17624 7.57368 1.24925 7.20279 1.50712 6.97793C3.52076 5.22207 5.09761 4.12556 6.36589 3.60968C7.6665 3.08064 8.7881 3.11466 9.66966 3.85447C10.4532 4.51198 10.8918 5.61994 11.2279 6.77272C11.437 7.49016 11.6311 8.32549 11.8337 9.19765ZM3.11264 7.57773C4.77995 6.177 6.01275 5.37266 6.93106 4.99913C7.92732 4.5939 8.39948 4.74674 8.70541 5.00348C9.10941 5.34252 9.45204 6.04081 9.78782 7.19256C9.98824 7.87999 10.1634 8.63572 10.3561 9.46731C10.4832 10.0157 10.6179 10.5971 10.7726 11.2136C11.0846 12.4576 11.4914 13.3587 12.0097 13.9383C12.5628 14.557 13.2438 14.8029 13.9479 14.6859C14.5874 14.5797 15.1392 14.1914 15.5618 13.7877C15.996 13.373 16.367 12.8722 16.6426 12.4145C16.6469 12.4074 16.6511 12.4002 16.6551 12.3929C17.3015 11.2333 17.6565 10.2913 17.7616 9.51332C17.8697 8.71321 17.7156 8.04981 17.3094 7.54168C16.9237 7.05923 16.389 6.81771 15.9433 6.67598C15.9368 6.6739 15.9303 6.67184 15.9237 6.66978C16.4006 6.19332 17.0504 5.68424 17.772 5.31422C18.9686 4.70063 20.0738 4.60186 20.8796 5.24154C21.0543 5.38024 21.2013 5.63297 21.2403 6.10508C21.2799 6.58295 21.1992 7.20951 20.9888 7.9603C20.5692 9.45724 19.6839 11.2743 18.5705 13.0319C17.4593 14.7861 16.1505 16.4343 14.9161 17.6027C14.2979 18.1879 13.7185 18.6336 13.2098 18.9151C12.6867 19.2045 12.3229 19.2737 12.1012 19.2435C12.0676 19.239 12.0339 19.2367 12 19.2367C11.4175 19.2367 10.9288 18.9626 10.473 18.3815C10.0014 17.7802 9.61215 16.9025 9.27771 15.8437C8.94614 14.794 8.68696 13.629 8.44469 12.4854C8.41236 12.3329 8.38027 12.1803 8.3483 12.0283C8.14434 11.0587 7.9452 10.1119 7.72099 9.32989C7.46233 8.42771 7.02388 7.75584 6.35515 7.43608C5.68623 7.11622 4.99217 7.24667 4.44559 7.48107C4.0765 7.63936 3.65878 7.69242 3.31605 7.63084C3.24213 7.61756 3.17443 7.59976 3.11264 7.57773Z" fill="currentColor"/>
</svg>
