<svg width="24" height="24" viewBox="0 0 24 24" fill="none" xmlns="http://www.w3.org/2000/svg">
  <path fill-rule="evenodd" clip-rule="evenodd" d="M12 2.75C6.89138 2.75 2.75002 6.89137 2.75002 12C2.75002 13.2768 3.00829 14.4914 3.47475 15.5959L3.48213 15.6133C3.61533 15.9287 3.72587 16.1904 3.80408 16.404C3.88245 16.618 3.95164 16.8433 3.96776 17.0762C3.99393 17.4544 3.88841 17.8467 3.76716 18.2975C3.75849 18.3297 3.74974 18.3622 3.74095 18.3951L3.06002 20.94L5.60493 20.2591C5.63778 20.2503 5.67031 20.2415 5.70255 20.2329C6.15331 20.1116 6.54561 20.0061 6.92382 20.0323C7.15675 20.0484 7.38203 20.1176 7.59603 20.1959C7.80962 20.2742 8.07139 20.3847 8.38682 20.5179L8.40417 20.5253C9.50859 20.9917 10.7232 21.25 12 21.25C17.1087 21.25 21.25 17.1086 21.25 12C21.25 6.89137 17.1087 2.75 12 2.75ZM1.25002 12C1.25002 6.06294 6.06296 1.25 12 1.25C17.9371 1.25 22.75 6.06294 22.75 12C22.75 17.9371 17.9371 22.75 12 22.75C10.5191 22.75 9.10634 22.4501 7.82056 21.9071C7.48326 21.7646 7.25534 21.6686 7.08019 21.6045C6.90154 21.539 6.83692 21.5298 6.82026 21.5287C6.72635 21.5222 6.59867 21.5459 5.99264 21.7081L2.19387 22.7245C1.93512 22.7937 1.65909 22.7197 1.46969 22.5303C1.28029 22.3409 1.20627 22.0649 1.2755 21.8061L2.29192 18.0074C2.45407 17.4013 2.47783 17.2737 2.47134 17.1798C2.47018 17.1631 2.46099 17.0985 2.39557 16.9198C2.33142 16.7447 2.23539 16.5168 2.09293 16.1795C1.54989 14.8937 1.25002 13.4809 1.25002 12Z" fill="currentColor"/>
  <path fill-rule="evenodd" clip-rule="evenodd" d="M8.88073 6.2501C8.91146 6.25015 8.94235 6.25021 8.97339 6.25021C9.19376 6.25021 9.56488 6.25701 9.9079 6.39995C10.3177 6.57071 10.6554 6.92251 10.7418 7.47395L10.7427 7.47964C10.8498 8.16319 10.9312 8.68266 10.9847 9.05015C11.0114 9.23405 11.0321 9.38669 11.0457 9.50611C11.0568 9.60426 11.0709 9.73931 11.0642 9.85228C11.0356 10.3418 10.837 10.7312 10.6303 11.0328C10.4988 11.2247 10.3227 11.4333 10.1841 11.5973C10.1297 11.6617 10.0811 11.7192 10.0433 11.7662L9.49426 12.4481C9.78013 12.8303 10.0987 13.1992 10.4499 13.5504C10.801 13.9016 11.1699 14.2201 11.5521 14.506L12.2341 13.9569C12.281 13.9191 12.3386 13.8705 12.403 13.8161C12.567 13.6776 12.7755 13.5015 12.9675 13.3699C13.2691 13.1633 13.6584 12.9647 14.148 12.936C14.261 12.9294 14.396 12.9434 14.4942 12.9546C14.6136 12.9681 14.7662 12.9889 14.9501 13.0156C15.3176 13.069 15.8371 13.1504 16.5206 13.2576L16.5263 13.2585C17.0778 13.3449 17.4296 13.6826 17.6003 14.0924C17.7433 14.4354 17.7501 14.8065 17.7501 15.0269C17.7501 15.0579 17.7501 15.0888 17.7502 15.1195C17.751 15.5992 17.7517 16.0417 17.5529 16.4769C17.4085 16.793 17.1632 17.062 16.9181 17.2579C16.6731 17.4538 16.3566 17.6339 16.0164 17.7051C15.5501 17.8028 15.1953 17.7222 14.8157 17.6361C14.7982 17.6321 14.7807 17.6282 14.7632 17.6242C12.8389 17.1897 10.952 16.1739 9.38922 14.6111C7.82641 13.0482 6.81059 11.1614 6.37607 9.23709C6.3721 9.21953 6.36813 9.20204 6.36418 9.18459C6.27804 8.80501 6.19752 8.45018 6.29516 7.98384L6.29516 7.98384C6.36639 7.64364 6.54646 7.32719 6.74235 7.08214C6.93823 6.83709 7.20725 6.59173 7.5234 6.44732L7.5234 6.44732C7.95858 6.24854 8.40107 6.24929 8.88073 6.2501ZM12.8947 15.3508C13.6102 15.723 14.3512 15.9934 15.0936 16.161C15.5335 16.2604 15.5875 16.2624 15.709 16.237C15.7539 16.2276 15.8597 16.1837 15.9815 16.0863C16.1034 15.9889 16.1695 15.8953 16.1885 15.8536C16.2357 15.7505 16.2501 15.6516 16.2501 15.0269C16.2501 14.9287 16.2471 14.8489 16.2392 14.7817C16.2368 14.7618 16.2342 14.7449 16.2316 14.7306C15.5728 14.6273 15.0816 14.5505 14.7343 14.5C14.5549 14.4739 14.4207 14.4559 14.3249 14.445C14.2583 14.4374 14.2268 14.4354 14.2188 14.4347C14.106 14.4449 13.9834 14.4922 13.8154 14.6073C13.6846 14.6969 13.5809 14.7851 13.4517 14.8948C13.3729 14.9619 13.2845 15.0369 13.1748 15.1253L12.8947 15.3508ZM8.6495 11.1055L8.87498 10.8255C8.96333 10.7158 9.03842 10.6274 9.10546 10.5485C9.2152 10.4194 9.30339 10.3156 9.393 10.1849C9.50811 10.0169 9.55538 9.89428 9.56556 9.78151C9.56485 9.77342 9.56284 9.74197 9.55528 9.67541C9.5444 9.57961 9.52636 9.44537 9.50027 9.26593C9.44979 8.91863 9.37294 8.42748 9.2697 7.76866C9.25541 7.76605 9.23846 7.76346 9.21854 7.7611C9.15134 7.75316 9.07161 7.75021 8.97339 7.75021C8.34862 7.75021 8.24978 7.7646 8.14663 7.81172C8.10498 7.83075 8.01141 7.89689 7.91401 8.01873C7.81661 8.14057 7.7727 8.24641 7.76332 8.29124C7.73788 8.41273 7.73989 8.46677 7.83923 8.9067C8.00687 9.6491 8.27725 10.3901 8.6495 11.1055Z" fill="currentColor"/>
</svg>
