<svg width="24" height="24" viewBox="0 0 24 24" fill="currentColor" xmlns="http://www.w3.org/2000/svg">
  <path fill-rule="evenodd" clip-rule="evenodd" d="M6.69955 10.7546C6.71551 10.7619 6.73149 10.7693 6.74749 10.7767L7.5248 11.1349C7.5435 11.1435 7.56214 11.1521 7.58071 11.1607C8.47454 11.5725 9.21927 11.9157 9.72981 12.2436C10.2205 12.5587 10.7903 13.0433 10.7479 13.8183C10.7054 14.5939 10.0854 15.0127 9.56305 15.2714C9.01972 15.5406 8.24198 15.7988 7.30876 16.1087L6.43982 16.3973C6.4231 16.4028 6.40639 16.4084 6.38971 16.4139C5.99069 16.5465 5.60493 16.6748 5.26972 16.7249C4.87514 16.7839 4.45987 16.7509 4.0641 16.4815C3.69532 16.2304 3.50046 15.8975 3.40069 15.5214C3.31972 15.2162 3.29571 14.8512 3.27234 14.4959C3.2712 14.4786 3.27007 14.4614 3.26893 14.4442C3.25637 14.2545 3.25 14.0632 3.25 13.8705C3.25 13.3574 3.29517 12.8544 3.38189 12.3654C3.3849 12.3484 3.38792 12.3313 3.39094 12.3143C3.45285 11.9643 3.51654 11.6043 3.63036 11.31C3.77073 10.9471 4.00109 10.6377 4.39543 10.4291C4.81871 10.205 5.23523 10.2186 5.62066 10.321C5.94823 10.4081 6.31748 10.5784 6.69955 10.7546ZM5.10921 11.75C5.10782 11.75 5.10638 11.7499 5.09706 11.7548C5.0825 11.7625 5.07532 11.7679 5.0726 11.77C5.07012 11.772 5.06895 11.7732 5.06775 11.7747C5.06584 11.777 5.0512 11.7947 5.02937 11.8511C4.97477 11.9923 4.93398 12.2036 4.85884 12.6273C4.78739 13.0302 4.75 13.4456 4.75 13.8705C4.75 14.0301 4.75528 14.1883 4.76565 14.3451C4.79411 14.775 4.81161 14.99 4.85055 15.1368C4.86615 15.1957 4.87886 15.2152 4.88071 15.218C4.88184 15.2197 4.88296 15.2212 4.88531 15.2235C4.88787 15.226 4.89451 15.2322 4.9082 15.2415C4.91718 15.2476 4.91876 15.2478 4.92027 15.2479C4.91998 15.2478 4.92054 15.2479 4.92027 15.2479C4.929 15.2494 4.96516 15.2538 5.04787 15.2414C5.23863 15.2129 5.49854 15.1293 5.96706 14.9737L6.77749 14.7046C7.78428 14.3702 8.45987 14.1439 8.89726 13.9273C9.0732 13.8401 9.16774 13.7752 9.21683 13.7342C9.17252 13.6878 9.08545 13.6125 8.91926 13.5057C8.50804 13.2416 7.86111 12.9415 6.89699 12.4972L6.11968 12.139C5.67111 11.9323 5.42186 11.8203 5.23531 11.7707C5.1544 11.7492 5.11799 11.7495 5.10921 11.75C5.10947 11.7501 5.10892 11.7501 5.10921 11.75ZM9.25954 13.791C9.25895 13.791 9.25666 13.7873 9.25445 13.7801C9.25903 13.7875 9.26014 13.7911 9.25954 13.791ZM9.25935 13.6928C9.26237 13.6858 9.2651 13.6823 9.26571 13.6824C9.26631 13.6824 9.2648 13.6859 9.25935 13.6928Z" fill="currentColor"/>
  <path fill-rule="evenodd" clip-rule="evenodd" d="M19.1641 8.34661C19.1755 8.35942 19.1869 8.37221 19.1982 8.38498C19.5649 8.79737 19.8905 9.24478 20.1684 9.7216C20.1773 9.73695 20.1863 9.75235 20.1953 9.76778C20.3712 10.0693 20.5553 10.3848 20.6557 10.6828C20.7817 11.0567 20.796 11.4487 20.6073 11.8617C20.4073 12.2994 20.0624 12.5415 19.6972 12.697C19.3807 12.8317 18.9765 12.9301 18.5506 13.0339C18.5339 13.038 18.5171 13.0421 18.5002 13.0462L17.972 13.175C16.9059 13.435 16.0324 13.648 15.3775 13.7211C14.771 13.7888 13.9733 13.788 13.5053 13.1424C13.0155 12.4667 13.3259 11.7119 13.6158 11.1954C13.9275 10.6398 14.4562 9.9439 15.0949 9.10332C15.1076 9.08661 15.1203 9.06985 15.1331 9.05304L15.4143 8.68288C15.4248 8.66903 15.4353 8.65519 15.4458 8.64138C15.7015 8.30461 15.948 7.97999 16.1987 7.74666C16.4935 7.47229 16.8502 7.2682 17.3222 7.25121C17.7638 7.23532 18.1189 7.37652 18.4304 7.61339C18.6841 7.80632 18.9273 8.08003 19.1641 8.34661ZM17.4378 8.75615C17.4308 8.75376 17.4152 8.74884 17.3762 8.75024C17.3749 8.75029 17.3736 8.75028 17.3722 8.75026C17.3551 8.75011 17.3226 8.74982 17.2206 8.84468C17.0764 8.97893 16.908 9.19623 16.6087 9.59027L16.3275 9.96043C15.6411 10.8639 15.1781 11.4763 14.9239 11.9294C14.8407 12.0777 14.797 12.1787 14.7743 12.2442C14.8526 12.2526 14.9879 12.2553 15.2112 12.2303C15.7581 12.1693 16.5367 11.981 17.6736 11.7038L18.1449 11.5889C18.6398 11.4682 18.9206 11.3973 19.1097 11.3168C19.1934 11.2812 19.2262 11.2565 19.236 11.248C19.2365 11.2476 19.2369 11.2473 19.2373 11.247C19.2401 11.2446 19.2401 11.2445 19.243 11.2383C19.2467 11.2301 19.2487 11.2248 19.2497 11.2217C19.2489 11.2147 19.2459 11.1962 19.2343 11.1619C19.1888 11.0269 19.0876 10.8461 18.8724 10.4769C18.6456 10.0877 18.379 9.72097 18.0773 9.38169C17.7913 9.06004 17.6454 8.90088 17.5225 8.80741C17.473 8.76977 17.4473 8.75941 17.4378 8.75615ZM14.7514 12.3327C14.7526 12.3413 14.7521 12.3463 14.7515 12.3467C14.7509 12.3471 14.7503 12.3428 14.7514 12.3327Z" fill="currentColor"/>
  <path fill-rule="evenodd" clip-rule="evenodd" d="M10.9662 17.0285C10.6108 17.4112 10.1586 18.0457 9.49599 18.9795L9.33016 19.2132C9.04999 19.608 8.89392 19.8319 8.80649 20.0104C8.7394 20.1475 8.74805 20.1875 8.75384 20.2143C8.75403 20.2152 8.75422 20.216 8.7544 20.2169C8.76296 20.2573 8.7715 20.2707 8.77349 20.2738C8.77609 20.2779 8.78715 20.2947 8.8265 20.3265C8.93011 20.41 9.09608 20.499 9.45333 20.6819C9.78083 20.8495 10.1224 20.9854 10.4752 21.0867C10.6556 21.1385 10.7932 21.1779 10.9121 21.2068C11.031 21.2356 11.103 21.2466 11.1487 21.2494C11.1566 21.2499 11.1631 21.2501 11.1682 21.2501M10.9662 17.0285C11.0281 16.9619 11.081 16.9097 11.1255 16.8691L10.9662 17.0285ZM10.6197 15.4021C10.9327 15.2457 11.3073 15.1863 11.6911 15.3382C12.0647 15.4862 12.2961 15.7745 12.4346 16.0756C12.5653 16.3598 12.6317 16.6919 12.6717 17.0276C12.7501 17.6864 12.7501 18.6001 12.7501 19.7237L12.7501 20.0771C12.7501 20.0934 12.7501 20.1098 12.7501 20.1261C12.7502 20.564 12.7502 20.9736 12.6993 21.3079C12.6416 21.6866 12.5052 22.0727 12.1567 22.3784C11.8216 22.6722 11.4478 22.7708 11.0561 22.7466C10.7538 22.7279 10.4187 22.6314 10.1127 22.5433C10.0954 22.5383 10.0782 22.5333 10.0611 22.5284C9.61306 22.3998 9.18139 22.2278 8.76991 22.0172C8.75493 22.0095 8.73988 22.0018 8.72478 21.9941C8.43396 21.8454 8.12422 21.6871 7.88492 21.4941C7.58544 21.2526 7.37583 20.9467 7.28705 20.5281C7.19313 20.0854 7.2877 19.7013 7.45931 19.3508C7.60697 19.0493 7.83717 18.725 8.07834 18.3853C8.08783 18.3719 8.09734 18.3585 8.10686 18.3451L8.27269 18.1114C8.28457 18.0946 8.29641 18.078 8.30821 18.0613C8.92654 17.1899 9.43576 16.4723 9.86697 16.0079C10.0867 15.7713 10.3361 15.5439 10.6197 15.4021Z" fill="currentColor"/>
  <path fill-rule="evenodd" clip-rule="evenodd" d="M10.9506 2.75027C10.7588 2.75452 10.5004 2.80153 10.0352 2.89067C9.18318 3.05389 8.36119 3.31697 7.59833 3.65743C7.20032 3.83506 6.9859 3.93331 6.84507 4.02616C6.78468 4.06597 6.76295 4.08939 6.75695 4.09655C6.75677 4.09677 6.75712 4.09635 6.75695 4.09655C6.75513 4.0987 6.75318 4.10101 6.751 4.10665C6.75359 4.11954 6.76177 4.15085 6.78708 4.20752C6.8612 4.37344 7.00147 4.59047 7.25873 4.98065L8.68566 7.14482C9.49332 8.36976 10.059 9.22505 10.5157 9.75895C10.7433 10.0251 10.9017 10.1597 11.0049 10.2207C11.0105 10.2239 11.0156 10.2268 11.0204 10.2295C11.0643 10.1389 11.1178 9.96468 11.1593 9.65386C11.2482 8.98819 11.2499 7.9954 11.2499 6.56447V3.8818C11.2499 3.3863 11.247 3.11615 11.213 2.92868C11.19 2.80266 11.1684 2.79605 11.1631 2.79443C11.1626 2.79428 11.1622 2.79418 11.162 2.79403C11.1311 2.77118 11.098 2.747 10.9506 2.75027ZM10.9173 1.25063C11.3084 1.24196 11.6916 1.32046 12.053 1.58732C12.443 1.87523 12.6157 2.2582 12.6888 2.66038C12.7501 2.99797 12.75 3.40771 12.7499 3.82765C12.7499 3.84568 12.7499 3.86373 12.7499 3.8818L12.7499 6.62831C12.7499 7.98058 12.75 9.07502 12.6461 9.85245C12.5933 10.2476 12.5056 10.6355 12.3324 10.9576C12.1439 11.3083 11.8429 11.5964 11.4057 11.7066C10.9749 11.8152 10.5769 11.7098 10.2426 11.5125C9.92836 11.3271 9.64282 11.0462 9.37572 10.7339C8.85036 10.1197 8.23352 9.1841 7.46628 8.02042L6.00644 5.80634C5.99723 5.79237 5.98802 5.77842 5.97883 5.76449C5.75976 5.43239 5.54795 5.1113 5.4175 4.81927C5.2655 4.47897 5.18033 4.08657 5.32213 3.6497C5.45485 3.2408 5.7173 2.97302 6.01944 2.77383C6.27563 2.60492 6.60623 2.45748 6.94338 2.30712C6.95791 2.30063 6.97246 2.29415 6.98701 2.28765C7.85233 1.90146 8.78457 1.60297 9.75292 1.41746C9.76915 1.41435 9.78535 1.41124 9.80154 1.40814C10.1997 1.33176 10.5841 1.25802 10.9173 1.25063Z" fill="currentColor"/>
</svg>
