<svg width="24" height="24" viewBox="0 0 24 24" fill="none" xmlns="http://www.w3.org/2000/svg">
  <path fill-rule="evenodd" clip-rule="evenodd" d="M12.0001 4.25C10.2393 4.25 8.55416 4.42399 6.99647 4.74151C4.94437 5.15982 4.2299 5.3326 3.50873 6.25983C2.7837 7.19201 2.75011 8.23864 2.75011 11.0365V12.9635C2.75011 15.7614 2.7837 16.808 3.50873 17.7402C4.2299 18.6674 4.94437 18.8402 6.99647 19.2585C8.55416 19.576 10.2393 19.75 12.0001 19.75C13.7609 19.75 15.4461 19.576 17.0038 19.2585C19.0558 18.8402 19.7703 18.6674 20.4915 17.7402C21.2165 16.808 21.2501 15.7614 21.2501 12.9635V11.0365C21.2501 8.23864 21.2165 7.19201 20.4915 6.25983C19.7703 5.3326 19.0558 5.15982 17.0038 4.74151C15.4461 4.42399 13.7609 4.25 12.0001 4.25ZM6.69686 3.27174C8.35585 2.93356 10.1415 2.75 12.0001 2.75C13.8587 2.75 15.6444 2.93356 17.3034 3.27174C17.3461 3.28045 17.3885 3.28908 17.4306 3.29766C19.3253 3.68329 20.5877 3.94024 21.6755 5.33892C22.7517 6.72258 22.7511 8.3272 22.7502 10.8124C22.7501 10.8863 22.7501 10.961 22.7501 11.0365V12.9635C22.7501 13.039 22.7501 13.1137 22.7502 13.1876C22.7511 15.6728 22.7517 17.2774 21.6755 18.6611C20.5877 20.0598 19.3253 20.3167 17.4306 20.7023C17.3885 20.7109 17.3461 20.7196 17.3034 20.7283C15.6444 21.0664 13.8587 21.25 12.0001 21.25C10.1415 21.25 8.35585 21.0664 6.69686 20.7283C6.65412 20.7196 6.61169 20.7109 6.56958 20.7023C4.67495 20.3167 3.41255 20.0598 2.3247 18.6611C1.24852 17.2774 1.24912 15.6728 1.25005 13.1876C1.25008 13.1137 1.25011 13.039 1.25011 12.9635V11.0365C1.25011 10.961 1.25008 10.8863 1.25005 10.8124C1.24912 8.3272 1.24852 6.72258 2.3247 5.33892C3.41255 3.94024 4.67495 3.68329 6.56958 3.29766C6.6117 3.28908 6.65412 3.28045 6.69686 3.27174Z" fill="currentColor"/>
  <path fill-rule="evenodd" clip-rule="evenodd" d="M13.7665 9.09685L13.8483 9.14192C14.6026 9.55759 15.2257 9.9009 15.6741 10.219C16.1233 10.5378 16.5495 10.9327 16.6906 11.5087C16.7698 11.8321 16.7698 12.168 16.6906 12.4913C16.5495 13.0673 16.1233 13.4623 15.6741 13.781C15.2257 14.0992 14.6026 14.4425 13.8483 14.8581L13.7665 14.9032C12.942 15.3576 12.2677 15.7291 11.7125 15.959C11.149 16.1924 10.571 16.3412 9.98266 16.187C9.6484 16.0994 9.33461 15.9439 9.06646 15.7271C8.57416 15.3291 8.40014 14.7592 8.32379 14.1849C8.24994 13.6294 8.24997 12.9108 8.25 12.0535C8.25 12.0357 8.25 12.0179 8.25 12C8.25 11.9822 8.25 11.9643 8.25 11.9466C8.24997 11.0892 8.24994 10.3707 8.32379 9.81517C8.40014 9.24087 8.57416 8.67099 9.06646 8.27298C9.33461 8.05619 9.6484 7.90068 9.98266 7.81307C10.571 7.65886 11.149 7.80766 11.7125 8.04103C12.2677 8.27092 12.942 8.64251 13.7665 9.09685ZM11.1386 9.4269C10.6695 9.23262 10.4702 9.23595 10.363 9.26407C10.226 9.29996 10.1058 9.36161 10.0095 9.43945C9.96383 9.47638 9.86886 9.57545 9.81071 10.0128C9.75159 10.4575 9.75 11.0751 9.75 12C9.75 12.925 9.75159 13.5425 9.81071 13.9872C9.86886 14.4246 9.96383 14.5237 10.0095 14.5606C10.1058 14.6385 10.226 14.7001 10.363 14.736C10.4702 14.7641 10.6695 14.7674 11.1386 14.5732C11.6072 14.3791 12.2082 14.0493 13.0829 13.5672C13.8891 13.123 14.4359 12.8203 14.8061 12.5577C15.1836 12.2898 15.2264 12.1643 15.2337 12.1345C15.2554 12.0456 15.2554 11.9545 15.2337 11.8656C15.2264 11.8357 15.1836 11.7102 14.8061 11.4424C14.4359 11.1797 13.8891 10.8771 13.0829 10.4328C12.2082 9.95082 11.6072 9.62093 11.1386 9.4269Z" fill="currentColor"/>
</svg>
